<?xml version="1.0" encoding="UTF-8"?> <!-- Generator: Adobe Illustrator 26.1.0, SVG Export Plug-In . SVG Version: 6.00 Build 0) --> <svg xmlns="http://www.w3.org/2000/svg" xmlns:xlink="http://www.w3.org/1999/xlink" id="Layer_1" x="0px" y="0px" viewBox="0 0 357.4 170.6" style="enable-background:new 0 0 357.4 170.6;" xml:space="preserve"> <style type="text/css"> .st0{fill:#EEEEEE;} .st1{fill:#FFFFFF;} .st2{fill:#25649F;} .st3{fill:#AE3857;} </style> <g> <polygon class="st0" points="254.8,35.9 110.7,35.9 104.5,64.6 248.9,64.6 "></polygon> <path d="M116.7,58.7c-0.2,0.8-0.7,1.3-1.5,1.2c-0.8,0-1.1-0.4-0.9-1.3l3.3-15.3c0.1-0.4,0.3-0.8,0.5-1c0.3-0.2,0.6-0.4,0.9-0.4 l5.4,0c2.4,0,4.1,0.4,5.1,1c0.9,0.7,1.3,1.8,0.9,3.3c-0.3,1.5-1.1,2.7-2.2,3.5c-1.1,0.8-2.6,1.2-4.4,1.2l-5.5,0L116.7,58.7z M123,48.7c1.9,0,3.2-0.1,3.8-0.4c0.6-0.3,1-0.9,1.2-1.8c0.1-0.6,0.1-1.1-0.1-1.4c-0.2-0.3-0.6-0.5-1.2-0.6 c-0.6-0.1-1.5-0.2-2.8-0.2l-4.2,0l-1,4.4L123,48.7z"></path> <path d="M116.7,58.7c-0.2,0.8-0.7,1.3-1.5,1.2c-0.8,0-1.1-0.4-0.9-1.3l3.3-15.3c0.1-0.4,0.3-0.8,0.5-1c0.3-0.2,0.6-0.4,0.9-0.4 l5.4,0c2.4,0,4.1,0.4,5.1,1c0.9,0.7,1.3,1.8,0.9,3.3c-0.3,1.5-1.1,2.7-2.2,3.5c-1.1,0.8-2.6,1.2-4.4,1.2l-5.5,0L116.7,58.7z M123,48.7c1.9,0,3.2-0.1,3.8-0.4c0.6-0.3,1-0.9,1.2-1.8c0.1-0.6,0.1-1.1-0.1-1.4c-0.2-0.3-0.6-0.5-1.2-0.6 c-0.6-0.1-1.5-0.2-2.8-0.2l-4.2,0l-1,4.4L123,48.7z"></path> <path class="st1" d="M115.3,60.2C115.2,60.2,115.2,60.2,115.3,60.2c-0.5,0-0.8-0.1-1-0.4c-0.2-0.3-0.3-0.6-0.2-1.1l3.3-15.3 c0.1-0.5,0.3-0.9,0.6-1.1c0.3-0.3,0.6-0.4,1.1-0.4l5.4,0c2.5,0,4.2,0.4,5.2,1.1c1,0.7,1.4,1.9,1,3.5c-0.3,1.6-1.1,2.8-2.3,3.6 c-1.2,0.8-2.7,1.2-4.5,1.2l-5.4,0l-1.6,7.5C116.7,59.7,116.1,60.2,115.3,60.2z M119,42.2c-0.3,0-0.5,0.1-0.8,0.3 c-0.2,0.2-0.4,0.5-0.5,0.9l-3.3,15.3c-0.1,0.4-0.1,0.6,0.1,0.8c0.1,0.1,0.3,0.2,0.6,0.2c0.7,0,1.1-0.3,1.3-1.1l1.7-7.9l5.7,0 c1.8,0,3.2-0.4,4.3-1.1c1.1-0.8,1.8-1.9,2.1-3.4c0.3-1.4,0-2.4-0.8-3.1c-0.9-0.7-2.6-1-4.9-1L119,42.2C119,42.2,119,42.2,119,42.2z M123.3,48.9c-0.1,0-0.2,0-0.3,0l-4.4,0l1-4.9l4.4,0c1.3,0,2.2,0.1,2.8,0.2c0.7,0.1,1.1,0.4,1.3,0.7c0.2,0.4,0.2,0.9,0.1,1.5 c-0.2,1-0.7,1.6-1.3,1.9C126.3,48.8,125.1,48.9,123.3,48.9z M119.1,48.5l3.9,0c1.9,0,3.1-0.1,3.7-0.4c0.6-0.2,0.9-0.8,1.1-1.6 c0.1-0.6,0.1-1,0-1.2c-0.1-0.3-0.5-0.4-1-0.5c-0.6-0.1-1.5-0.2-2.8-0.2l-4,0L119.1,48.5z"></path> <path d="M146.1,53.4c-0.3,1.3-0.8,2.5-1.7,3.5c-0.8,1-1.8,1.8-3.1,2.3c-1.2,0.5-2.6,0.8-4.1,0.8c-1.5,0-2.7-0.3-3.7-0.8 c-1-0.5-1.7-1.3-2.1-2.3c-0.4-1-0.4-2.2-0.1-3.5l1-4.8c0.3-1.3,0.8-2.5,1.7-3.5c0.8-1,1.8-1.8,3.1-2.3c1.2-0.5,2.6-0.8,4.1-0.8 c1.5,0,2.7,0.3,3.7,0.8c1,0.5,1.7,1.3,2.1,2.3c0.4,1,0.4,2.2,0.1,3.5L146.1,53.4z M140.7,44.2c-1.6,0-2.9,0.4-3.9,1.1 c-1,0.8-1.7,1.9-2,3.3l-1,4.6c-0.3,1.5-0.1,2.6,0.5,3.3c0.7,0.8,1.8,1.1,3.4,1.2c1.6,0,2.9-0.4,3.9-1.1c1-0.8,1.7-1.9,2-3.3l1-4.6 c0.3-1.4,0.1-2.5-0.5-3.3C143.5,44.6,142.3,44.2,140.7,44.2"></path> <path d="M146.1,53.4c-0.3,1.3-0.8,2.5-1.7,3.5c-0.8,1-1.8,1.8-3.1,2.3c-1.2,0.5-2.6,0.8-4.1,0.8c-1.5,0-2.7-0.3-3.7-0.8 c-1-0.5-1.7-1.3-2.1-2.3c-0.4-1-0.4-2.2-0.1-3.5l1-4.8c0.3-1.3,0.8-2.5,1.7-3.5c0.8-1,1.8-1.8,3.1-2.3c1.2-0.5,2.6-0.8,4.1-0.8 c1.5,0,2.7,0.3,3.7,0.8c1,0.5,1.7,1.3,2.1,2.3c0.4,1,0.4,2.2,0.1,3.5L146.1,53.4z M140.7,44.2c-1.6,0-2.9,0.4-3.9,1.1 c-1,0.8-1.7,1.9-2,3.3l-1,4.6c-0.3,1.5-0.1,2.6,0.5,3.3c0.7,0.8,1.8,1.1,3.4,1.2c1.6,0,2.9-0.4,3.9-1.1c1-0.8,1.7-1.9,2-3.3l1-4.6 c0.3-1.4,0.1-2.5-0.5-3.3C143.5,44.6,142.3,44.2,140.7,44.2z"></path> <path class="st1" d="M137.4,60.3c0,0-0.1,0-0.1,0c-1.5,0-2.8-0.3-3.8-0.9c-1-0.6-1.8-1.4-2.2-2.4c-0.4-1-0.4-2.3-0.1-3.6l1-4.8 c0.3-1.4,0.9-2.6,1.7-3.6c0.8-1,1.9-1.8,3.1-2.4c1.2-0.6,2.7-0.8,4.1-0.8c1.5,0,2.8,0.3,3.8,0.9c1,0.6,1.8,1.4,2.2,2.4 c0.4,1,0.4,2.3,0.1,3.6l-1,4.8c-0.3,1.4-0.9,2.6-1.7,3.6c-0.8,1-1.9,1.8-3.1,2.4C140.2,60,138.9,60.3,137.4,60.3z M141.1,42.2 c-1.4,0-2.7,0.3-3.9,0.8c-1.2,0.5-2.2,1.3-3,2.3c-0.8,1-1.3,2.1-1.6,3.4l-1,4.8c-0.3,1.3-0.2,2.4,0.1,3.4c0.4,1,1,1.7,2,2.2 c1,0.5,2.2,0.8,3.6,0.8c1.5,0,2.8-0.3,4-0.8c1.2-0.5,2.2-1.3,3-2.3c0.8-1,1.3-2.1,1.6-3.4l1-4.8c0.3-1.3,0.2-2.4-0.1-3.4 c-0.4-1-1-1.7-2-2.2c-1-0.5-2.2-0.8-3.6-0.8C141.2,42.2,141.1,42.2,141.1,42.2z M137.9,58C137.8,58,137.8,58,137.9,58 c-1.8,0-3-0.4-3.7-1.2c-0.7-0.8-0.9-2-0.6-3.5l1-4.6c0.3-1.5,1-2.7,2.1-3.4c1-0.8,2.4-1.2,4-1.2c0,0,0.1,0,0.1,0l0,0 c1.7,0,2.9,0.4,3.6,1.2c0.7,0.9,0.9,2.1,0.6,3.5l-1,4.6c-0.3,1.5-1,2.7-2.1,3.4C140.8,57.6,139.5,58,137.9,58z M140.6,44.5 c-1.5,0-2.8,0.4-3.7,1.1c-1,0.7-1.6,1.8-1.9,3.2l-1,4.6c-0.3,1.4-0.1,2.4,0.5,3.1c0.6,0.7,1.7,1.1,3.3,1.1c1.5,0,2.8-0.4,3.8-1.1 c1-0.7,1.6-1.8,1.9-3.2l1-4.6c0.3-1.3,0.1-2.4-0.5-3.1C143.4,44.8,142.3,44.5,140.6,44.5C140.7,44.5,140.7,44.5,140.6,44.5z"></path> <path d="M155.6,59.9c-1.9,0-3.3-0.2-4.3-0.5c-1-0.3-1.6-0.9-1.9-1.6c-0.3-0.7-0.3-1.8,0-3.1l1.6-7.3c0.3-1.3,0.7-2.3,1.3-3 c0.6-0.7,1.4-1.3,2.5-1.6c1.1-0.3,2.4-0.5,4.1-0.5l4.5,0c1.1,0,1.9,0.3,2.3,0.8c0.4,0.5,0.5,1.4,0.3,2.5c-0.2,1-0.7,1.5-1.5,1.5 c-0.4,0-0.6-0.1-0.8-0.4c-0.2-0.3-0.2-0.6-0.1-1.1c0.1-0.5,0.1-0.8,0-0.9c-0.1-0.2-0.4-0.2-0.8-0.2l-4.3,0c-1.3,0-2.3,0.1-2.9,0.2 c-0.6,0.1-1.1,0.4-1.4,0.8c-0.3,0.4-0.6,1-0.8,1.9l-1.6,7.2c-0.2,0.9-0.2,1.5-0.1,1.9c0.2,0.4,0.6,0.7,1.2,0.8 c0.7,0.1,1.7,0.2,3.2,0.2l3.8,0c0.4,0,0.7-0.1,0.9-0.2c0.2-0.2,0.3-0.5,0.4-0.9c0.1-0.5,0.3-0.8,0.5-1.1c0.3-0.3,0.6-0.4,1-0.4 c0.8,0,1.1,0.5,0.9,1.6c-0.2,1.1-0.7,2-1.4,2.5c-0.7,0.5-1.5,0.8-2.7,0.8L155.6,59.9z"></path> <path d="M155.6,59.9c-1.9,0-3.3-0.2-4.3-0.5c-1-0.3-1.6-0.9-1.9-1.6c-0.3-0.7-0.3-1.8,0-3.1l1.6-7.3c0.3-1.3,0.7-2.3,1.3-3 c0.6-0.7,1.4-1.3,2.5-1.6c1.1-0.3,2.4-0.5,4.1-0.5l4.5,0c1.1,0,1.9,0.3,2.3,0.8c0.4,0.5,0.5,1.4,0.3,2.5c-0.2,1-0.7,1.5-1.5,1.5 c-0.4,0-0.6-0.1-0.8-0.4c-0.2-0.3-0.2-0.6-0.1-1.1c0.1-0.5,0.1-0.8,0-0.9c-0.1-0.2-0.4-0.2-0.8-0.2l-4.3,0c-1.3,0-2.3,0.1-2.9,0.2 c-0.6,0.1-1.1,0.4-1.4,0.8c-0.3,0.4-0.6,1-0.8,1.9l-1.6,7.2c-0.2,0.9-0.2,1.5-0.1,1.9c0.2,0.4,0.6,0.7,1.2,0.8 c0.7,0.1,1.7,0.2,3.2,0.2l3.8,0c0.4,0,0.7-0.1,0.9-0.2c0.2-0.2,0.3-0.5,0.4-0.9c0.1-0.5,0.3-0.8,0.5-1.1c0.3-0.3,0.6-0.4,1-0.4 c0.8,0,1.1,0.5,0.9,1.6c-0.2,1.1-0.7,2-1.4,2.5c-0.7,0.5-1.5,0.8-2.7,0.8L155.6,59.9z"></path> <path class="st1" d="M159.6,60.1C159.6,60.1,159.6,60.1,159.6,60.1l-4.1,0c-1.9,0-3.3-0.2-4.3-0.5c-1-0.3-1.7-0.9-2.1-1.7 c-0.3-0.8-0.3-1.9-0.1-3.2l1.6-7.3c0.3-1.3,0.7-2.4,1.4-3.1c0.6-0.8,1.5-1.3,2.6-1.7c1.1-0.3,2.5-0.5,4.2-0.5l4.5,0 c1.2,0,2,0.3,2.5,0.9c0.5,0.6,0.6,1.5,0.3,2.7c-0.3,1.4-1.1,1.7-1.7,1.7c-0.5,0-0.8-0.2-1-0.5c-0.2-0.3-0.2-0.7-0.1-1.2 c0.1-0.5,0-0.7,0-0.7c0,0-0.2-0.1-0.7-0.2l-4.3,0c-1.3,0-2.3,0.1-2.9,0.2c-0.6,0.1-1,0.4-1.3,0.7c-0.3,0.4-0.5,1-0.7,1.8l-1.6,7.2 c-0.2,0.8-0.2,1.4-0.1,1.8c0.1,0.3,0.5,0.6,1.1,0.7c0.6,0.1,1.7,0.2,3.1,0.2l3.8,0c0.4,0,0.7-0.1,0.8-0.2c0.1-0.1,0.2-0.3,0.4-0.8 c0.1-0.5,0.3-0.9,0.6-1.2c0.3-0.3,0.7-0.4,1.1-0.4c0,0,0,0,0,0c0.4,0,0.7,0.1,0.9,0.4c0.2,0.3,0.3,0.8,0.2,1.4 c-0.3,1.2-0.7,2-1.4,2.6C161.7,59.8,160.8,60.1,159.6,60.1z M158.6,42.5c-1.6,0-2.9,0.2-3.9,0.5c-1,0.3-1.8,0.8-2.4,1.5 c-0.6,0.7-1,1.7-1.3,3l-1.6,7.3c-0.3,1.3-0.3,2.2,0,2.9c0.3,0.7,0.9,1.2,1.8,1.5c1,0.3,2.4,0.5,4.2,0.5l4,0c1.1,0,1.9-0.3,2.5-0.8 c0.6-0.5,1-1.3,1.3-2.4c0.1-0.5,0.1-0.9-0.1-1.1c-0.1-0.1-0.3-0.2-0.6-0.2c0,0,0,0,0,0c-0.3,0-0.6,0.1-0.8,0.3 c-0.2,0.2-0.4,0.5-0.5,1c-0.1,0.5-0.3,0.8-0.5,1c-0.2,0.2-0.6,0.3-1,0.3c0,0,0,0,0,0l-3.8,0c-1.5,0-2.6-0.1-3.2-0.2 c-0.7-0.2-1.2-0.5-1.4-1c-0.2-0.4-0.2-1.1,0-2l1.6-7.2c0.2-0.9,0.5-1.5,0.8-2c0.3-0.4,0.9-0.7,1.6-0.9c0.7-0.1,1.7-0.2,3-0.2l4.3,0 c0.5,0,0.8,0.1,1,0.3c0.2,0.2,0.2,0.6,0.1,1.1c-0.1,0.4-0.1,0.7,0.1,0.9c0.1,0.2,0.3,0.3,0.6,0.3c0,0,0,0,0,0 c0.7,0,1.1-0.4,1.3-1.4c0.2-1.1,0.2-1.9-0.2-2.4c-0.4-0.5-1.1-0.7-2.1-0.7l-4.5,0C158.8,42.5,158.7,42.5,158.6,42.5z"></path> <path d="M173.5,60c-1.9,0-3.3-0.2-4.3-0.5c-1-0.3-1.6-0.9-1.9-1.6c-0.3-0.7-0.3-1.8,0-3.1l1.6-7.3c0.3-1.3,0.7-2.3,1.3-3 c0.6-0.7,1.4-1.3,2.5-1.6c1.1-0.3,2.4-0.5,4.1-0.5l4.5,0c1.1,0,1.9,0.3,2.3,0.8c0.4,0.5,0.5,1.4,0.3,2.5c-0.2,1-0.7,1.5-1.5,1.5 c-0.4,0-0.6-0.1-0.8-0.4c-0.2-0.3-0.2-0.6-0.1-1.1c0.1-0.5,0.1-0.8,0-0.9c-0.1-0.2-0.4-0.2-0.8-0.2l-4.3,0c-1.3,0-2.3,0.1-2.9,0.2 c-0.6,0.1-1.1,0.4-1.4,0.8c-0.3,0.4-0.6,1-0.8,1.9l-1.6,7.2c-0.2,0.9-0.2,1.5-0.1,1.9c0.2,0.4,0.6,0.7,1.2,0.8 c0.7,0.1,1.7,0.2,3.2,0.2l3.8,0c0.4,0,0.7-0.1,0.9-0.2c0.2-0.2,0.3-0.5,0.4-0.9c0.1-0.5,0.3-0.8,0.5-1.1c0.3-0.3,0.6-0.4,1-0.4 c0.8,0,1.1,0.5,0.9,1.6c-0.2,1.1-0.7,2-1.4,2.5c-0.7,0.5-1.5,0.8-2.7,0.8L173.5,60z"></path> <path d="M173.5,60c-1.9,0-3.3-0.2-4.3-0.5c-1-0.3-1.6-0.9-1.9-1.6c-0.3-0.7-0.3-1.8,0-3.1l1.6-7.3c0.3-1.3,0.7-2.3,1.3-3 c0.6-0.7,1.4-1.3,2.5-1.6c1.1-0.3,2.4-0.5,4.1-0.5l4.5,0c1.1,0,1.9,0.3,2.3,0.8c0.4,0.5,0.5,1.4,0.3,2.5c-0.2,1-0.7,1.5-1.5,1.5 c-0.4,0-0.6-0.1-0.8-0.4c-0.2-0.3-0.2-0.6-0.1-1.1c0.1-0.5,0.1-0.8,0-0.9c-0.1-0.2-0.4-0.2-0.8-0.2l-4.3,0c-1.3,0-2.3,0.1-2.9,0.2 c-0.6,0.1-1.1,0.4-1.4,0.8c-0.3,0.4-0.6,1-0.8,1.9l-1.6,7.2c-0.2,0.9-0.2,1.5-0.1,1.9c0.2,0.4,0.6,0.7,1.2,0.8 c0.7,0.1,1.7,0.2,3.2,0.2l3.8,0c0.4,0,0.7-0.1,0.9-0.2c0.2-0.2,0.3-0.5,0.4-0.9c0.1-0.5,0.3-0.8,0.5-1.1c0.3-0.3,0.6-0.4,1-0.4 c0.8,0,1.1,0.5,0.9,1.6c-0.2,1.1-0.7,2-1.4,2.5c-0.7,0.5-1.5,0.8-2.7,0.8L173.5,60z"></path> <path class="st1" d="M177.6,60.2C177.5,60.2,177.5,60.2,177.6,60.2l-4.1,0c-1.9,0-3.3-0.2-4.3-0.5c-1-0.3-1.7-0.9-2.1-1.7 c-0.3-0.8-0.3-1.9-0.1-3.2l1.6-7.3c0.3-1.3,0.7-2.4,1.4-3.1c0.6-0.8,1.5-1.3,2.6-1.7c1.1-0.3,2.5-0.5,4.2-0.5l4.5,0 c1.2,0,2,0.3,2.5,0.9c0.5,0.6,0.6,1.5,0.3,2.7c-0.3,1.4-1.1,1.7-1.7,1.7c0,0,0,0,0,0c-0.5,0-0.8-0.2-1-0.5 c-0.2-0.3-0.2-0.7-0.1-1.2c0.1-0.5,0-0.7,0-0.7c0,0-0.2-0.1-0.7-0.1l-4.3,0c-1.3,0-2.3,0.1-2.9,0.2c-0.6,0.1-1,0.4-1.3,0.7 c-0.3,0.4-0.5,1-0.7,1.8l-1.6,7.2c-0.2,0.8-0.2,1.4-0.1,1.8c0.1,0.3,0.5,0.6,1.1,0.7c0.6,0.1,1.7,0.2,3.1,0.2l3.8,0 c0.5,0,0.7-0.1,0.8-0.2c0.1-0.1,0.2-0.3,0.4-0.8c0.1-0.5,0.3-0.9,0.6-1.2c0.3-0.3,0.7-0.4,1.1-0.4c0.4,0,0.7,0.1,0.9,0.4 c0.2,0.3,0.3,0.8,0.2,1.4c-0.3,1.2-0.7,2-1.4,2.6C179.6,59.9,178.7,60.2,177.6,60.2z M176.6,42.5c-1.6,0-2.9,0.2-3.9,0.5 c-1,0.3-1.8,0.8-2.4,1.5c-0.6,0.7-1,1.7-1.3,3l-1.6,7.3c-0.3,1.3-0.3,2.2,0,2.9c0.3,0.7,0.9,1.2,1.8,1.5c1,0.3,2.4,0.5,4.2,0.5l4,0 c1.1,0,1.9-0.3,2.5-0.8c0.6-0.5,1-1.3,1.3-2.4c0.1-0.5,0.1-0.9-0.1-1.1c-0.1-0.1-0.3-0.2-0.6-0.2c-0.3,0-0.6,0.1-0.8,0.3 c-0.2,0.2-0.4,0.5-0.5,1c-0.1,0.5-0.3,0.8-0.5,1c-0.2,0.2-0.6,0.3-1,0.3c0,0,0,0,0,0l-3.8,0c-1.5,0-2.6-0.1-3.2-0.2 c-0.7-0.2-1.2-0.5-1.4-1c-0.2-0.4-0.2-1.1,0-2l1.6-7.2c0.2-0.9,0.5-1.5,0.8-2c0.3-0.4,0.9-0.8,1.6-0.9c0.7-0.1,1.6-0.2,3-0.2l4.3,0 c0.5,0,0.8,0.1,1,0.3c0.2,0.2,0.2,0.6,0.1,1.1c-0.1,0.4-0.1,0.7,0.1,0.9c0.1,0.2,0.3,0.3,0.6,0.3c0,0,0,0,0,0 c0.7,0,1.1-0.4,1.3-1.4c0.2-1.1,0.2-1.9-0.2-2.4c-0.4-0.5-1.1-0.7-2.1-0.7l-4.5,0C176.7,42.5,176.7,42.5,176.6,42.5z"></path> <path d="M184.7,58.9l3.3-15.4c0.2-0.9,0.7-1.3,1.5-1.3c0.8,0,1.1,0.5,0.9,1.4l-2.7,12.5l12.8-13.2c0.5-0.5,0.9-0.7,1.4-0.7 c0.8,0,1,0.4,0.8,1.3l-3.3,15.4c-0.2,0.9-0.7,1.3-1.5,1.3c-0.8,0-1.1-0.4-0.9-1.2l2.7-12.7l-12.7,13.1c-0.3,0.3-0.5,0.5-0.7,0.6 c-0.2,0.1-0.4,0.1-0.7,0.1C184.8,60.2,184.5,59.7,184.7,58.9"></path> <path d="M184.7,58.9l3.3-15.4c0.2-0.9,0.7-1.3,1.5-1.3c0.8,0,1.1,0.5,0.9,1.4l-2.7,12.5l12.8-13.2c0.5-0.5,0.9-0.7,1.4-0.7 c0.8,0,1,0.4,0.8,1.3l-3.3,15.4c-0.2,0.9-0.7,1.3-1.5,1.3c-0.8,0-1.1-0.4-0.9-1.2l2.7-12.7l-12.7,13.1c-0.3,0.3-0.5,0.5-0.7,0.6 c-0.2,0.1-0.4,0.1-0.7,0.1C184.8,60.2,184.5,59.7,184.7,58.9z"></path> <path class="st1" d="M197.9,60.4C197.9,60.4,197.9,60.4,197.9,60.4c-0.5,0-0.8-0.1-1-0.4c-0.2-0.3-0.3-0.6-0.2-1.1l2.6-11.9 l-12.1,12.6c-0.3,0.3-0.6,0.5-0.8,0.7c-0.2,0.1-0.5,0.2-0.8,0.2c-0.4,0-0.7-0.1-0.9-0.4c-0.2-0.3-0.3-0.7-0.2-1.2l3.3-15.4 c0.3-1.2,1.1-1.5,1.7-1.5c0,0,0,0,0,0c0.4,0,0.7,0.1,0.9,0.4c0.2,0.3,0.3,0.7,0.2,1.3L188,55.4l12.3-12.7c0.5-0.5,1-0.7,1.5-0.7 c0.4,0,0.7,0.1,0.9,0.4c0.2,0.3,0.3,0.7,0.2,1.2L199.6,59C199.4,59.9,198.8,60.4,197.9,60.4z M200.1,45.6L197.2,59 c-0.1,0.3-0.1,0.6,0.1,0.8c0.1,0.1,0.3,0.2,0.7,0.2c0,0,0,0,0,0c0.7,0,1.1-0.4,1.3-1.1l3.3-15.4c0.1-0.4,0.1-0.7-0.1-0.9 c-0.1-0.1-0.3-0.2-0.6-0.2c0,0,0,0,0,0c-0.4,0-0.8,0.2-1.2,0.6l-13.3,13.8l2.9-13.2c0.1-0.4,0.1-0.8-0.1-0.9 c-0.1-0.1-0.3-0.2-0.6-0.2c0,0,0,0,0,0c-0.7,0-1.1,0.4-1.3,1.2l-3.3,15.4c-0.1,0.4-0.1,0.7,0.1,0.8c0.1,0.1,0.3,0.2,0.6,0.2 c0.3,0,0.5,0,0.6-0.1c0.2-0.1,0.4-0.3,0.7-0.6L200.1,45.6z"></path> <path d="M214.8,59l1.4-6.7l-4,0c-0.9,0-1.6,0.1-2,0.4c-0.5,0.3-0.9,0.8-1.2,1.4l-1.3,2.5c-0.6,1.1-1.3,1.9-2.1,2.6 c-0.9,0.6-1.8,1-2.7,1c-1,0-1.4-0.4-1.2-1.1c0.2-0.7,0.7-1.1,1.7-1.1c0.3,0,0.7-0.2,1.1-0.5c0.4-0.3,0.6-0.6,0.8-1l1.4-2.8 c0.4-0.8,1-1.5,1.7-2.1c-1.7-0.8-2.4-2.3-1.9-4.3c0.3-1.6,1.2-2.8,2.6-3.7c1.4-0.8,3.2-1.3,5.4-1.3l5.2,0c0.8,0,1,0.5,0.8,1.4 L217.3,59c-0.2,0.8-0.7,1.3-1.4,1.2C215,60.3,214.7,59.9,214.8,59 M217.9,44.7l-4,0c-1.6,0-2.7,0.2-3.5,0.6 c-0.8,0.4-1.3,1.1-1.5,2.1c-0.4,1.7,0.9,2.6,3.9,2.6l4,0L217.9,44.7z"></path> <path d="M214.8,59l1.4-6.7l-4,0c-0.9,0-1.6,0.1-2,0.4c-0.5,0.3-0.9,0.8-1.2,1.4l-1.3,2.5c-0.6,1.1-1.3,1.9-2.1,2.6 c-0.9,0.6-1.8,1-2.7,1c-1,0-1.4-0.4-1.2-1.1c0.2-0.7,0.7-1.1,1.7-1.1c0.3,0,0.7-0.2,1.1-0.5c0.4-0.3,0.6-0.6,0.8-1l1.4-2.8 c0.4-0.8,1-1.5,1.7-2.1c-1.7-0.8-2.4-2.3-1.9-4.3c0.3-1.6,1.2-2.8,2.6-3.7c1.4-0.8,3.2-1.3,5.4-1.3l5.2,0c0.8,0,1,0.5,0.8,1.4 L217.3,59c-0.2,0.8-0.7,1.3-1.4,1.2C215,60.3,214.7,59.9,214.8,59z M217.9,44.7l-4,0c-1.6,0-2.7,0.2-3.5,0.6 c-0.8,0.4-1.3,1.1-1.5,2.1c-0.4,1.7,0.9,2.6,3.9,2.6l4,0L217.9,44.7z"></path> <path class="st1" d="M215.8,60.5C215.8,60.5,215.8,60.5,215.8,60.5c-0.5,0-0.8-0.1-1-0.4c-0.2-0.3-0.3-0.6-0.2-1.1l1.4-6.4l-3.7,0 c-0.8,0-1.5,0.1-1.9,0.4c-0.4,0.3-0.8,0.7-1.1,1.3l-1.3,2.5c-0.6,1.1-1.3,2-2.2,2.6c-0.9,0.7-1.8,1-2.8,1c-0.6,0-1-0.1-1.3-0.4 c-0.2-0.2-0.2-0.6-0.2-1c0.1-0.6,0.6-1.3,1.9-1.3c0,0,0,0,0,0c0.3,0,0.6-0.1,0.9-0.4c0.3-0.3,0.6-0.6,0.8-0.9l1.4-2.8 c0.4-0.8,0.9-1.4,1.5-2c-1.6-0.9-2.2-2.4-1.8-4.4c0.4-1.6,1.3-2.9,2.7-3.8c1.4-0.8,3.2-1.3,5.4-1.3c0,0,0.1,0,0.1,0l5.2,0 c0.4,0,0.7,0.1,0.9,0.4c0.2,0.3,0.3,0.7,0.2,1.3l-3.3,15.2C217.3,60,216.7,60.5,215.8,60.5z M215,59.1c-0.1,0.4-0.1,0.6,0.1,0.8 c0.1,0.2,0.4,0.2,0.7,0.2c0.7,0,1.1-0.3,1.2-1.1l3.3-15.2c0.1-0.4,0.1-0.8-0.1-0.9c-0.1-0.1-0.3-0.2-0.6-0.2l-5.2,0 c-2.2,0-3.9,0.4-5.3,1.2c-1.3,0.8-2.2,2-2.5,3.5c-0.4,2,0.2,3.3,1.8,4.1l0.3,0.1l-0.3,0.2c-0.7,0.5-1.2,1.2-1.7,2l-1.4,2.8 c-0.2,0.4-0.5,0.7-0.9,1c-0.4,0.3-0.8,0.5-1.2,0.5c-0.9,0-1.4,0.3-1.5,0.9c-0.1,0.3,0,0.5,0.1,0.6c0.1,0.2,0.5,0.3,0.9,0.3 c0.8,0,1.7-0.3,2.5-0.9c0.8-0.6,1.5-1.5,2.1-2.5l1.3-2.5c0.4-0.7,0.8-1.2,1.3-1.5c0.5-0.3,1.2-0.4,2.1-0.4c0,0,0,0,0.1,0l4.3,0 L215,59.1z M216.9,50.3l-4.1,0c-2,0-3.2-0.4-3.8-1.1c-0.4-0.5-0.5-1-0.3-1.7c0.2-1,0.8-1.8,1.6-2.2c0.8-0.4,2-0.7,3.6-0.7l4.2,0 L216.9,50.3z M213.8,44.9c-1.4,0-2.6,0.2-3.3,0.6c-0.8,0.4-1.2,1-1.4,1.9c-0.1,0.6,0,1,0.2,1.4c0.5,0.6,1.7,0.9,3.5,1l3.8,0 l1.1-4.9l-3.7,0C213.9,44.9,213.9,44.9,213.8,44.9z"></path> <path d="M232.3,53.3c-0.1-0.2-0.2-0.4-0.1-0.7c0.1-0.3,0.2-0.5,0.4-0.7c0.2-0.2,0.5-0.2,0.8-0.2l10.6,0c0.3,0,0.6,0.1,0.7,0.2 c0.1,0.2,0.2,0.4,0.1,0.7c-0.1,0.3-0.2,0.5-0.4,0.7c-0.2,0.2-0.5,0.2-0.8,0.2l-10.6,0C232.7,53.6,232.5,53.5,232.3,53.3"></path> <path d="M232.3,53.3c-0.1-0.2-0.2-0.4-0.1-0.7c0.1-0.3,0.2-0.5,0.4-0.7c0.2-0.2,0.5-0.2,0.8-0.2l10.6,0c0.3,0,0.6,0.1,0.7,0.2 c0.1,0.2,0.2,0.4,0.1,0.7c-0.1,0.3-0.2,0.5-0.4,0.7c-0.2,0.2-0.5,0.2-0.8,0.2l-10.6,0C232.7,53.6,232.5,53.5,232.3,53.3z"></path> <path class="st1" d="M243.6,53.8C243.5,53.8,243.5,53.8,243.6,53.8l-10.6,0c-0.4,0-0.6-0.1-0.8-0.3c-0.2-0.2-0.2-0.5-0.2-0.9 c0.1-0.4,0.2-0.6,0.5-0.8c0.3-0.2,0.6-0.3,0.9-0.3l10.6,0c0.4,0,0.7,0.1,0.9,0.3c0.2,0.2,0.2,0.5,0.1,0.9c-0.1,0.4-0.2,0.6-0.5,0.8 C244.2,53.7,243.9,53.8,243.6,53.8z M233.4,51.9c-0.3,0-0.5,0.1-0.6,0.2c-0.2,0.1-0.3,0.3-0.3,0.6c0,0.2,0,0.4,0.1,0.5l0,0 c0.1,0.1,0.3,0.2,0.5,0.2l10.6,0c0.3,0,0.5-0.1,0.7-0.2c0.2-0.1,0.3-0.3,0.3-0.6c0.1-0.2,0-0.4-0.1-0.5c-0.1-0.1-0.3-0.2-0.5-0.2 L233.4,51.9C233.4,51.9,233.4,51.9,233.4,51.9z"></path> <polygon class="st2" points="129.6,67.6 123.4,96.6 241.9,96.6 248.2,67.6 "></polygon> <path class="st1" d="M139.9,91.9c-1.9,0-3.3-0.2-4.3-0.5c-1-0.3-1.6-0.9-1.9-1.6c-0.3-0.7-0.3-1.8,0-3.1l1.6-7.3 c0.3-1.3,0.7-2.3,1.3-3c0.6-0.7,1.4-1.3,2.5-1.6c1.1-0.3,2.4-0.5,4.1-0.5l4.5,0c1.1,0,1.9,0.3,2.3,0.8c0.4,0.5,0.5,1.4,0.3,2.5 c-0.2,1-0.7,1.5-1.5,1.5c-0.4,0-0.6-0.1-0.8-0.4c-0.2-0.3-0.2-0.6-0.1-1.1c0.1-0.5,0.1-0.8,0-0.9c-0.1-0.2-0.4-0.2-0.8-0.2l-4.3,0 c-1.3,0-2.3,0.1-2.9,0.2c-0.6,0.1-1.1,0.4-1.4,0.8c-0.3,0.4-0.6,1-0.8,1.9l-1.6,7.2c-0.2,0.9-0.2,1.5-0.1,1.9 c0.2,0.4,0.6,0.7,1.2,0.8c0.7,0.1,1.7,0.2,3.2,0.2l3.8,0c0.4,0,0.7-0.1,0.9-0.2c0.2-0.2,0.3-0.5,0.4-0.9s0.3-0.8,0.5-1.1 c0.3-0.3,0.6-0.4,1-0.4c0.8,0,1.1,0.5,0.9,1.6c-0.2,1.1-0.7,2-1.4,2.5c-0.7,0.5-1.5,0.8-2.7,0.8L139.9,91.9z"></path> <path class="st1" d="M144,92.1C144,92.1,143.9,92.1,144,92.1l-4.1,0c-1.9,0-3.3-0.2-4.3-0.5c-1-0.3-1.7-0.9-2.1-1.7 c-0.3-0.8-0.3-1.9-0.1-3.2l1.6-7.3c0.3-1.3,0.7-2.4,1.4-3.1c0.6-0.8,1.5-1.3,2.6-1.7c1.1-0.3,2.5-0.5,4.2-0.5l4.5,0 c1.2,0,2,0.3,2.5,0.9c0.5,0.6,0.6,1.5,0.3,2.7c-0.3,1.4-1.1,1.7-1.7,1.7c0,0,0,0,0,0c-0.5,0-0.8-0.2-1-0.5 c-0.2-0.3-0.2-0.7-0.1-1.2c0.1-0.5,0-0.7,0-0.7c0,0-0.2-0.1-0.7-0.2l-4.3,0c-1.3,0-2.3,0.1-2.9,0.2c-0.6,0.1-1,0.4-1.3,0.7 c-0.3,0.4-0.5,1-0.7,1.8l-1.6,7.2c-0.2,0.8-0.2,1.4-0.1,1.8c0.1,0.3,0.5,0.6,1.1,0.7c0.6,0.1,1.7,0.2,3.1,0.2l3.8,0 c0.4,0,0.7-0.1,0.8-0.2c0.1-0.1,0.2-0.3,0.4-0.8c0.1-0.5,0.3-0.9,0.6-1.2c0.3-0.3,0.7-0.4,1.1-0.4c0,0,0,0,0,0 c0.4,0,0.7,0.1,0.9,0.4c0.2,0.3,0.3,0.8,0.2,1.4c-0.3,1.2-0.7,2-1.4,2.6C146,91.8,145.1,92.1,144,92.1z M143,74.4 c-1.6,0-2.9,0.2-3.9,0.5c-1,0.3-1.8,0.8-2.4,1.5c-0.6,0.7-1,1.7-1.3,3l-1.6,7.3c-0.3,1.3-0.3,2.2,0,2.9c0.3,0.7,0.9,1.2,1.8,1.5 c1,0.3,2.4,0.5,4.2,0.5l4,0c1.1,0,1.9-0.3,2.5-0.8c0.6-0.5,1-1.3,1.3-2.4c0.1-0.5,0.1-0.9-0.1-1.1c-0.1-0.1-0.3-0.2-0.6-0.2 c-0.3,0-0.6,0.1-0.8,0.3c-0.2,0.2-0.4,0.5-0.5,1c-0.1,0.5-0.3,0.8-0.5,1c-0.2,0.2-0.6,0.3-1.1,0.3l-3.8,0c-1.5,0-2.6-0.1-3.2-0.2 c-0.7-0.2-1.2-0.5-1.4-1c-0.2-0.4-0.2-1.1,0-2l1.6-7.2c0.2-0.9,0.5-1.5,0.8-2c0.3-0.4,0.9-0.7,1.6-0.9c0.7-0.1,1.6-0.2,3-0.2l4.3,0 c0.5,0,0.8,0.1,1,0.3c0.2,0.2,0.2,0.6,0.1,1.1c-0.1,0.4-0.1,0.7,0.1,0.9c0.1,0.2,0.3,0.3,0.6,0.3c0,0,0,0,0,0 c0.7,0,1.1-0.4,1.3-1.4c0.2-1.1,0.2-1.9-0.2-2.4c-0.4-0.5-1.1-0.7-2.1-0.7l-4.5,0C143.1,74.4,143.1,74.4,143,74.4z"></path> <path class="st1" d="M165.3,74.3c0.9,0,1.3,0.4,1.1,1.1c-0.2,0.8-0.7,1.1-1.6,1.1l-4,0l-3.1,14.3c-0.1,0.4-0.3,0.7-0.6,0.9 c-0.3,0.2-0.7,0.4-1.1,0.3c-0.4,0-0.7-0.1-0.9-0.3c-0.2-0.2-0.2-0.5-0.1-0.9l3.1-14.3l-4.1,0c-0.4,0-0.8-0.1-1-0.3 c-0.2-0.2-0.3-0.5-0.2-0.8c0.1-0.3,0.3-0.6,0.5-0.8c0.3-0.2,0.7-0.3,1.1-0.3L165.3,74.3z"></path> <path class="st1" d="M156,92.3C156,92.3,156,92.3,156,92.3c-0.5,0-0.9-0.1-1.1-0.4c-0.2-0.3-0.3-0.6-0.2-1.1l3-14l-3.8,0 c-0.5,0-0.9-0.1-1.1-0.4c-0.3-0.3-0.3-0.6-0.2-1c0.1-0.4,0.3-0.7,0.6-1c0.3-0.2,0.7-0.4,1.2-0.3l10.8,0c0.6,0,1,0.1,1.2,0.4 c0.2,0.2,0.2,0.6,0.2,1c-0.1,0.6-0.5,1.3-1.8,1.3c0,0,0,0,0,0l-3.9,0l-3,14.1c-0.1,0.4-0.3,0.8-0.7,1 C156.8,92.2,156.4,92.3,156,92.3z M154.4,74.5c-0.4,0-0.7,0.1-0.9,0.3c-0.2,0.2-0.4,0.4-0.5,0.7c-0.1,0.3,0,0.5,0.1,0.6 c0.2,0.2,0.4,0.2,0.8,0.3l4.4,0l-3.1,14.5c-0.1,0.3,0,0.6,0.1,0.7c0.1,0.2,0.4,0.3,0.7,0.3c0.4,0,0.7-0.1,1-0.3 c0.3-0.2,0.4-0.5,0.5-0.8l3.1-14.5l4.2,0c0.8,0,1.3-0.3,1.4-1c0.1-0.3,0-0.5-0.1-0.6c-0.1-0.2-0.4-0.3-0.9-0.3L154.4,74.5 C154.4,74.5,154.4,74.5,154.4,74.5z"></path> <path class="st1" d="M168.3,90.9c-0.2,0.8-0.7,1.2-1.5,1.2c-0.8,0-1.1-0.4-0.9-1.3l3.3-15.3c0.1-0.4,0.3-0.8,0.5-1 c0.2-0.2,0.6-0.4,0.9-0.4l5.4,0c2.4,0,4.1,0.4,5.1,1c0.9,0.7,1.3,1.8,0.9,3.3c-0.3,1.5-1.1,2.7-2.2,3.5c-1.1,0.8-2.6,1.2-4.4,1.2 l-5.5,0L168.3,90.9z M174.6,80.9c1.9,0,3.2-0.1,3.8-0.5c0.6-0.3,1-0.9,1.2-1.8c0.1-0.6,0.1-1.1-0.1-1.4c-0.2-0.3-0.6-0.5-1.2-0.6 c-0.6-0.1-1.5-0.2-2.8-0.2l-4.2,0l-1,4.4L174.6,80.9z"></path> <path class="st1" d="M166.8,92.4C166.8,92.4,166.8,92.4,166.8,92.4c-0.5,0-0.8-0.1-1-0.4c-0.2-0.3-0.3-0.6-0.2-1.1l3.3-15.3 c0.1-0.5,0.3-0.9,0.6-1.1c0.3-0.3,0.7-0.4,1.1-0.4l5.4,0c2.5,0,4.2,0.4,5.2,1.1c1,0.7,1.4,1.9,1,3.5c-0.3,1.6-1.1,2.8-2.3,3.6 c-1.2,0.8-2.7,1.2-4.5,1.2l-5.4,0l-1.6,7.5C168.3,91.9,167.7,92.4,166.8,92.4z M170.6,74.4c-0.3,0-0.5,0.1-0.8,0.3 c-0.2,0.2-0.4,0.5-0.5,0.9l-3.3,15.3c-0.1,0.4-0.1,0.6,0.1,0.8c0.1,0.1,0.3,0.2,0.6,0.2c0,0,0,0,0,0c0.7,0,1.1-0.3,1.2-1.1l1.7-7.9 l5.7,0c1.7,0,3.2-0.4,4.3-1.1c1.1-0.8,1.8-1.9,2.1-3.4c0.3-1.4,0-2.4-0.8-3.1c-0.9-0.7-2.6-1-4.9-1L170.6,74.4 C170.6,74.4,170.6,74.4,170.6,74.4z M174.9,81.1c-0.1,0-0.2,0-0.3,0l-4.4,0l1.1-4.9l4.4,0c1.3,0,2.2,0.1,2.8,0.2 c0.7,0.1,1.1,0.4,1.3,0.7c0.2,0.4,0.2,0.9,0.1,1.5c-0.2,1-0.7,1.6-1.3,1.9C177.9,81,176.7,81.1,174.9,81.1z M174.6,80.7 c1.9,0,3.1-0.1,3.7-0.4c0.6-0.2,0.9-0.8,1.1-1.6c0.1-0.6,0.1-1,0-1.2c-0.1-0.3-0.5-0.4-1-0.5c-0.6-0.1-1.5-0.2-2.8-0.2l-4,0l-0.9,4 L174.6,80.7z"></path> <path class="st1" d="M193.7,74.4l3.3,16.4c0,0.2,0,0.4-0.1,0.7c-0.1,0.3-0.2,0.5-0.5,0.7c-0.3,0.2-0.6,0.3-0.9,0.3 c-0.6,0-0.9-0.3-1-0.9l-0.9-4.7l-7.7,0l-2.9,4.7c-0.4,0.6-0.9,0.9-1.4,0.9c-0.3,0-0.6-0.1-0.8-0.3c-0.2-0.2-0.3-0.4-0.2-0.7 c0.1-0.3,0.1-0.5,0.2-0.7l10.3-16.4L193.7,74.4z M191.6,77.8l-4.3,6.8l5.7,0L191.6,77.8z"></path> <path class="st1" d="M195.5,92.7C195.5,92.7,195.5,92.7,195.5,92.7c-0.7,0-1.1-0.4-1.3-1l-0.9-4.5l-7.4,0l-2.9,4.6 c-0.4,0.6-1,1-1.6,1c0,0,0,0,0,0c-0.4,0-0.7-0.1-0.9-0.4c-0.2-0.3-0.3-0.6-0.3-0.9c0.1-0.3,0.1-0.5,0.3-0.7L191,74.2l2.9,0l0,0.2 l3.3,16.4c0,0.2,0,0.5-0.1,0.8c-0.1,0.3-0.3,0.6-0.6,0.8C196.2,92.6,195.9,92.7,195.5,92.7z M185.8,86.7l8,0l0.9,4.9 c0.1,0.5,0.3,0.7,0.8,0.7c0,0,0,0,0,0c0.3,0,0.5-0.1,0.8-0.3c0.2-0.2,0.4-0.3,0.4-0.6c0.1-0.2,0.1-0.5,0.1-0.6l-3.2-16.2l-2.3,0 L181,90.9c-0.1,0.1-0.2,0.4-0.2,0.6c0,0.2,0,0.3,0.2,0.5c0.2,0.2,0.4,0.2,0.6,0.2c0,0,0,0,0,0c0.5,0,0.9-0.3,1.2-0.8L185.8,86.7z M193.3,84.8l-6.4,0l4.8-7.5L193.3,84.8z M187.7,84.4l5.1,0l-1.3-6L187.7,84.4z"></path> <path class="st1" d="M202.1,91c-0.2,0.9-0.7,1.3-1.5,1.3c-0.8,0-1.1-0.4-0.9-1.3l3.3-15.4c0.2-0.9,0.7-1.3,1.4-1.3 c0.8,0,1.2,0.4,1,1.3l-1.3,5.9l9.9,0l1.3-5.8c0.2-0.9,0.7-1.3,1.5-1.3c0.8,0,1.1,0.4,0.9,1.3L214.4,91c-0.2,0.9-0.7,1.3-1.5,1.3 c-0.8,0-1.1-0.4-0.9-1.3l1.6-7.2l-9.9,0L202.1,91z"></path> <path class="st1" d="M213,92.5C213,92.5,213,92.5,213,92.5c-0.5,0-0.8-0.1-1-0.4c-0.2-0.3-0.3-0.7-0.2-1.2l1.5-7l-9.5,0l-1.5,7.1 c-0.2,1-0.8,1.5-1.7,1.5c0,0,0,0,0,0c-0.4,0-0.8-0.1-1-0.4c-0.2-0.3-0.3-0.7-0.2-1.2l3.3-15.4c0.3-1.2,1-1.5,1.6-1.5c0,0,0,0,0,0 c0.5,0,0.8,0.1,1,0.4c0.2,0.3,0.3,0.7,0.2,1.2l-1.2,5.6l9.5,0l1.2-5.7c0.3-1.2,1.1-1.5,1.7-1.5c0,0,0,0,0,0c0.4,0,0.8,0.1,1,0.4 c0.2,0.3,0.3,0.7,0.2,1.2L214.6,91C214.4,92,213.8,92.5,213,92.5z M203.5,83.5l10.3,0l-1.6,7.5c-0.1,0.4-0.1,0.7,0.1,0.8 c0.1,0.1,0.3,0.2,0.6,0.2c0,0,0,0,0,0c0.7,0,1.1-0.4,1.3-1.1l3.3-15.4c0.1-0.4,0.1-0.7-0.1-0.9c-0.1-0.1-0.3-0.2-0.6-0.2 c0,0,0,0,0,0c-0.7,0-1.1,0.4-1.3,1.2l-1.3,6l-10.3,0l1.3-6.1c0.1-0.4,0.1-0.7-0.1-0.8c-0.1-0.2-0.3-0.2-0.7-0.2c0,0,0,0,0,0 c-0.7,0-1,0.4-1.2,1.2L200,91c-0.1,0.4-0.1,0.7,0.1,0.8c0.1,0.1,0.3,0.2,0.6,0.2c0,0,0,0,0,0c0.7,0,1.1-0.4,1.3-1.1L203.5,83.5z"></path> <path class="st1" d="M230.2,74.5l3.3,16.4c0,0.2,0,0.4-0.1,0.7c-0.1,0.3-0.2,0.5-0.5,0.7c-0.3,0.2-0.6,0.3-0.9,0.3 c-0.6,0-0.9-0.3-1-0.9L230,87l-7.7,0l-2.9,4.7c-0.4,0.6-0.9,0.9-1.4,0.9c-0.3,0-0.6-0.1-0.8-0.3c-0.2-0.2-0.3-0.4-0.2-0.7 c0.1-0.3,0.1-0.5,0.2-0.7l10.3-16.4L230.2,74.5z M228.1,77.9l-4.3,6.8l5.7,0L228.1,77.9z"></path> <path class="st1" d="M232,92.8C232,92.8,232,92.8,232,92.8c-0.7,0-1.1-0.4-1.3-1.1l-0.9-4.5l-7.4,0l-2.9,4.6c-0.4,0.6-1,1-1.6,1 c-0.4,0-0.7-0.1-0.9-0.4c-0.2-0.3-0.3-0.6-0.3-0.9c0.1-0.3,0.1-0.5,0.3-0.7l10.4-16.5l2.9,0l0,0.2l3.3,16.4c0,0.2,0,0.5-0.1,0.8 c-0.1,0.3-0.3,0.6-0.6,0.8C232.7,92.7,232.3,92.8,232,92.8z M222.2,86.8l8,0l0.9,4.9c0.1,0.5,0.3,0.7,0.8,0.7c0,0,0,0,0,0 c0.3,0,0.5-0.1,0.8-0.3c0.2-0.2,0.4-0.4,0.4-0.5c0.1-0.3,0.1-0.5,0.1-0.6L230,74.7l-2.3,0L217.4,91c-0.1,0.2-0.2,0.4-0.2,0.6 c0,0.2,0,0.3,0.2,0.5c0.2,0.2,0.4,0.2,0.6,0.2c0,0,0,0,0,0c0.5,0,0.9-0.3,1.2-0.8L222.2,86.8z M229.8,84.9l-6.4,0l4.8-7.5 L229.8,84.9z M224.2,84.5l5.1,0l-1.3-6L224.2,84.5z"></path> <polygon class="st3" points="60.8,99 54.6,127.7 294.5,127.7 300.6,99 "></polygon> <path class="st1" d="M67.8,105.7c0.1-0.4,0.3-0.8,0.5-1c0.3-0.2,0.6-0.4,0.9-0.4l5.3,0c1.7,0,3,0.2,4,0.5c0.9,0.3,1.6,0.8,1.9,1.5 c0.3,0.7,0.4,1.5,0.1,2.6c-0.3,1.3-0.8,2.2-1.7,2.9c1.3,0.8,1.7,2.3,1.2,4.5l-0.1,0.5c-0.3,1.3-0.7,2.3-1.4,3.1 c-0.6,0.7-1.5,1.3-2.6,1.6c-1.1,0.3-2.6,0.5-4.4,0.5l-6.2,0c-0.4,0-0.6-0.1-0.8-0.4c-0.1-0.2-0.2-0.6-0.1-1L67.8,105.7z M68.5,113.5l-1.3,6.2l4.9,0c1.5,0,2.5-0.1,3.2-0.2c0.7-0.1,1.2-0.4,1.6-0.8c0.3-0.4,0.6-1,0.8-1.9l0.1-0.4 c0.2-0.9,0.2-1.5,0.1-1.9c-0.1-0.4-0.5-0.7-1.1-0.8c-0.6-0.1-1.5-0.2-2.8-0.2L68.5,113.5z M73.1,111.3c1.3,0,2.2-0.1,2.9-0.2 c0.7-0.1,1.2-0.3,1.5-0.6c0.3-0.3,0.6-0.8,0.7-1.4c0.1-0.6,0.1-1.1-0.1-1.4c-0.2-0.3-0.6-0.5-1.2-0.6c-0.6-0.1-1.6-0.2-2.8-0.2 l-4.1,0l-1,4.4L73.1,111.3z"></path> <path class="st1" d="M71.9,122.3c-0.1,0-0.2,0-0.3,0l-6.2,0c-0.4,0-0.8-0.2-0.9-0.5c-0.2-0.3-0.2-0.7-0.1-1.2l3.2-14.9 c0.1-0.5,0.3-0.9,0.6-1.1c0.3-0.3,0.6-0.4,1-0.4c0,0,0,0,0,0l5.3,0c1.7,0,3.1,0.2,4,0.5c1,0.3,1.7,0.9,2,1.6 c0.4,0.7,0.4,1.6,0.2,2.8c-0.3,1.2-0.8,2.1-1.5,2.8c1.2,0.9,1.6,2.4,1.1,4.6l-0.1,0.5c-0.3,1.3-0.8,2.4-1.4,3.2 c-0.7,0.8-1.6,1.3-2.7,1.7C75.1,122.1,73.6,122.2,71.9,122.3z M69.2,104.6c-0.3,0-0.6,0.1-0.8,0.3c-0.2,0.2-0.4,0.5-0.5,0.9 l-3.2,14.9c-0.1,0.4-0.1,0.7,0.1,0.8c0.1,0.2,0.3,0.3,0.6,0.3l6.2,0c1.8,0,3.3-0.2,4.4-0.5c1.1-0.3,1.9-0.8,2.5-1.5 c0.6-0.7,1.1-1.7,1.3-3l0.1-0.5c0.5-2.1,0.1-3.5-1.2-4.3l-0.2-0.2l0.2-0.2c0.8-0.7,1.3-1.6,1.6-2.8c0.2-1,0.2-1.9-0.1-2.5 c-0.3-0.6-0.9-1.1-1.8-1.4c-0.9-0.3-2.2-0.5-3.9-0.5L69.2,104.6C69.2,104.6,69.2,104.6,69.2,104.6z M72.5,120c-0.1,0-0.2,0-0.3,0 l-5.2,0l1.4-6.6l5.6,0c1.3,0,2.2,0.1,2.8,0.2c0.6,0.2,1.1,0.5,1.2,0.9c0.2,0.4,0.1,1.1-0.1,2l-0.1,0.4c-0.2,0.9-0.5,1.5-0.8,2 c-0.4,0.4-0.9,0.7-1.7,0.9C74.8,119.9,73.8,120,72.5,120z M67.5,119.5l4.7,0c1.4,0,2.5-0.1,3.2-0.2c0.7-0.1,1.1-0.4,1.4-0.7 c0.3-0.4,0.6-1,0.7-1.8l0.1-0.4c0.2-0.8,0.2-1.4,0.1-1.7c-0.1-0.3-0.4-0.5-0.9-0.7c-0.6-0.1-1.5-0.2-2.7-0.2l-5.3,0L67.5,119.5z M73.4,111.5c-0.1,0-0.2,0-0.3,0l-4.4,0l1.1-4.9l4.3,0c1.3,0,2.2,0.1,2.9,0.2c0.7,0.1,1.1,0.4,1.3,0.7c0.2,0.4,0.3,0.9,0.1,1.5 c-0.1,0.7-0.4,1.2-0.7,1.5c-0.4,0.3-0.9,0.6-1.6,0.7C75.4,111.4,74.6,111.5,73.4,111.5z M69.3,111l3.8,0c1.3,0,2.2-0.1,2.9-0.2 c0.6-0.1,1.1-0.3,1.4-0.6c0.3-0.3,0.5-0.7,0.6-1.3c0.1-0.6,0.1-1-0.1-1.2c-0.2-0.2-0.5-0.4-1.1-0.5c-0.6-0.1-1.5-0.2-2.8-0.2 l-3.9,0L69.3,111z"></path> <path class="st1" d="M98.1,115.7c-0.3,1.3-0.8,2.5-1.7,3.5c-0.8,1-1.8,1.8-3.1,2.3c-1.2,0.5-2.6,0.8-4.1,0.8 c-1.5,0-2.7-0.3-3.7-0.8c-1-0.5-1.7-1.3-2.1-2.3c-0.4-1-0.4-2.2-0.1-3.5l1-4.8c0.3-1.3,0.8-2.5,1.7-3.5c0.8-1,1.8-1.8,3.1-2.3 c1.2-0.5,2.6-0.8,4.1-0.8c1.5,0,2.7,0.3,3.7,0.8c1,0.5,1.7,1.3,2.1,2.3c0.4,1,0.4,2.2,0.1,3.5L98.1,115.7z M92.8,106.5 c-1.6,0-2.9,0.4-3.9,1.1c-1,0.8-1.7,1.9-2,3.3l-1,4.6c-0.3,1.5-0.1,2.6,0.5,3.3c0.7,0.8,1.8,1.1,3.4,1.2c1.6,0,2.9-0.4,3.9-1.1 c1-0.8,1.7-1.9,2-3.3l1-4.6c0.3-1.4,0.1-2.5-0.5-3.3C95.6,106.9,94.4,106.5,92.8,106.5"></path> <path class="st1" d="M89.4,122.6c0,0-0.1,0-0.1,0c-1.5,0-2.8-0.3-3.8-0.9c-1-0.6-1.8-1.4-2.2-2.4c-0.4-1-0.4-2.3-0.1-3.6l1-4.8 c0.3-1.4,0.9-2.6,1.7-3.6c0.8-1,1.9-1.8,3.1-2.4c1.2-0.6,2.6-0.8,4.1-0.8c1.5,0,2.8,0.3,3.8,0.9c1,0.6,1.8,1.4,2.2,2.4 c0.4,1,0.4,2.3,0.1,3.6l-1,4.8c-0.3,1.4-0.9,2.6-1.7,3.6c-0.8,1-1.9,1.8-3.1,2.4C92.3,122.3,90.9,122.5,89.4,122.6z M93.2,104.4 c-1.4,0-2.7,0.3-3.9,0.8c-1.2,0.5-2.2,1.3-3,2.3c-0.8,1-1.3,2.1-1.6,3.4l-1,4.8c-0.3,1.3-0.2,2.4,0.1,3.4c0.4,1,1,1.7,2,2.2 c1,0.5,2.2,0.8,3.6,0.8c1.4,0,2.8-0.3,4-0.8c1.2-0.5,2.2-1.3,3-2.3c0.8-1,1.3-2.1,1.6-3.4l1-4.8c0.3-1.3,0.2-2.4-0.1-3.4 c-0.4-1-1-1.7-2-2.2C95.9,104.7,94.7,104.4,93.2,104.4C93.2,104.4,93.2,104.4,93.2,104.4z M89.9,120.3 C89.9,120.3,89.9,120.3,89.9,120.3c-1.8,0-3-0.4-3.7-1.2c-0.7-0.8-0.9-2-0.6-3.5l1-4.6c0.3-1.5,1-2.7,2.1-3.4c1-0.8,2.4-1.2,4-1.2 c0,0,0.1,0,0.1,0c1.7,0,2.9,0.4,3.6,1.2c0.7,0.9,0.9,2.1,0.6,3.5l-1,4.6c-0.3,1.5-1,2.7-2.1,3.4C92.9,119.9,91.5,120.3,89.9,120.3z M92.7,106.7c-1.5,0-2.8,0.4-3.7,1.1c-1,0.7-1.6,1.8-1.9,3.2l-1,4.6c-0.3,1.4-0.1,2.4,0.5,3.1c0.6,0.7,1.7,1.1,3.3,1.1 c1.6,0,2.8-0.4,3.8-1.1c1-0.7,1.6-1.8,1.9-3.2l1-4.6c0.3-1.3,0.1-2.4-0.5-3.1C95.4,107.1,94.3,106.7,92.7,106.7L92.7,106.7 C92.7,106.7,92.7,106.7,92.7,106.7z"></path> <path class="st1" d="M110.8,111.9c1.1,0,2-0.2,2.7-0.7c0.7-0.4,1.2-1,1.3-1.8c0.2-0.8,0-1.4-0.6-1.9c-0.6-0.5-1.4-0.8-2.4-0.8 l-5.2,0c-0.5,0-0.8,0.1-0.9,0.2c-0.2,0.1-0.3,0.5-0.4,1l-0.1,0.5c-0.2,0.9-0.7,1.4-1.5,1.4c-0.8,0-1.1-0.5-0.9-1.4 c0.3-1.5,0.8-2.5,1.4-3.1c0.6-0.6,1.5-0.9,2.8-0.9l5.6,0c1.1,0,2.1,0.2,2.9,0.6c0.8,0.4,1.3,1,1.7,1.7c0.3,0.7,0.4,1.6,0.2,2.5 c-0.3,1.6-1.2,2.9-2.6,3.8c1,1,1.3,2.4,1,4c-0.2,1-0.6,1.8-1.3,2.6c-0.7,0.8-1.5,1.4-2.5,1.8c-1,0.4-2,0.6-3.1,0.6l-5.6,0 c-1.2,0-2-0.3-2.4-0.9c-0.4-0.6-0.4-1.6-0.1-3.1c0.2-0.9,0.7-1.4,1.5-1.4c0.8,0,1.1,0.5,0.9,1.4l-0.1,0.5c-0.1,0.5-0.1,0.8,0,1 c0.1,0.1,0.4,0.2,0.8,0.2l5.2,0c1,0,1.9-0.3,2.7-0.8c0.8-0.6,1.3-1.3,1.5-2.1c0.2-0.8,0-1.4-0.5-1.9c-0.5-0.5-1.3-0.8-2.3-0.8 l-2.4,0c-1,0-1.4-0.4-1.2-1.1c0.2-0.8,0.7-1.1,1.7-1.1L110.8,111.9z"></path> <path class="st1" d="M108.7,122.4C108.7,122.4,108.7,122.4,108.7,122.4l-5.7,0c-1.3,0-2.1-0.3-2.5-1c-0.4-0.6-0.4-1.7-0.1-3.2 c0.3-1.3,1.1-1.5,1.7-1.6c0.4,0,0.7,0.1,0.9,0.4c0.2,0.3,0.3,0.7,0.2,1.3l-0.1,0.5c-0.1,0.6-0.1,0.8,0,0.8c0,0,0.1,0.1,0.7,0.1 l5.2,0c0,0,0,0,0,0c1,0,1.8-0.3,2.6-0.8c0.8-0.5,1.2-1.2,1.4-2c0.2-0.7,0-1.3-0.5-1.7c-0.5-0.5-1.2-0.7-2.2-0.7l-2.4,0 c-0.6,0-1-0.1-1.3-0.4c-0.2-0.2-0.2-0.6-0.2-1c0.1-0.6,0.6-1.3,1.9-1.3c0,0,0,0,0,0l2.4,0c1,0,1.9-0.2,2.6-0.6 c0.7-0.4,1.1-0.9,1.2-1.6c0.2-0.7,0-1.3-0.5-1.7c-0.5-0.5-1.3-0.7-2.3-0.7l-5.2,0c-0.5,0-0.7,0.1-0.8,0.2c-0.1,0.1-0.2,0.3-0.3,0.8 l-0.1,0.5c-0.3,1.3-1.1,1.5-1.7,1.6c0,0,0,0,0,0c-0.4,0-0.7-0.1-0.9-0.4c-0.2-0.3-0.3-0.7-0.2-1.3c0.3-1.5,0.8-2.6,1.5-3.2 c0.7-0.6,1.6-0.9,2.9-0.9l5.6,0c1.2,0,2.2,0.2,3,0.6c0.8,0.4,1.4,1,1.8,1.8c0.3,0.8,0.4,1.7,0.2,2.6c-0.3,1.6-1.2,2.8-2.5,3.8 c0.9,1.1,1.2,2.4,0.8,4c-0.2,1-0.7,1.9-1.3,2.7c-0.7,0.8-1.5,1.4-2.5,1.9C110.9,122.1,109.9,122.4,108.7,122.4z M102.1,117 c-0.7,0-1.1,0.4-1.3,1.2c-0.3,1.4-0.3,2.4,0.1,2.9c0.3,0.5,1.1,0.8,2.2,0.8l5.6,0c1.1,0,2.1-0.2,3-0.6c0.9-0.4,1.7-1,2.4-1.7 c0.6-0.7,1.1-1.6,1.3-2.5c0.3-1.6,0-2.8-0.9-3.8l-0.2-0.2l0.2-0.1c1.4-0.9,2.2-2.1,2.5-3.6c0.2-0.9,0.1-1.7-0.2-2.4 c-0.3-0.7-0.8-1.2-1.6-1.6c-0.8-0.4-1.7-0.6-2.8-0.6l-5.6,0c0,0,0,0-0.1,0c-1.1,0-2,0.3-2.5,0.8c-0.6,0.6-1,1.5-1.3,2.9 c-0.1,0.4-0.1,0.7,0.1,0.9c0.1,0.1,0.3,0.2,0.6,0.2c0.7,0,1.1-0.4,1.3-1.2l0.1-0.5c0.1-0.5,0.3-0.9,0.5-1.1 c0.2-0.2,0.6-0.2,1.1-0.3l5.2,0c1.1,0,2,0.3,2.6,0.8c0.6,0.6,0.8,1.3,0.7,2.2c-0.2,0.8-0.6,1.4-1.4,1.9c-0.8,0.5-1.7,0.7-2.8,0.7 l-2.4,0c-0.9,0-1.4,0.3-1.5,1c-0.1,0.3,0,0.5,0.1,0.6c0.1,0.2,0.5,0.3,0.9,0.3l2.4,0c1.1,0,1.9,0.3,2.5,0.8 c0.6,0.6,0.8,1.3,0.6,2.1c-0.2,0.9-0.7,1.6-1.6,2.2c-0.8,0.6-1.8,0.9-2.8,0.9c0,0,0,0,0,0l-5.2,0c-0.5,0-0.9-0.1-1-0.3 c-0.2-0.2-0.2-0.6,0-1.1l0.1-0.5c0.1-0.4,0.1-0.7-0.1-0.9C102.6,117.1,102.4,117,102.1,117C102.1,117,102.1,117,102.1,117z"></path> <path class="st1" d="M128.6,114.2c-0.3,0.3-0.7,0.4-1,0.4c-0.4,0-0.6-0.1-0.9-0.4l-3-5.9L121,121c-0.2,0.9-0.7,1.4-1.5,1.4 c-0.8,0-1.1-0.4-0.9-1.3l3.3-15.4c0.2-0.9,0.7-1.3,1.4-1.3c0.5,0,0.8,0.2,1.1,0.7l3.7,7.1l6.8-7.1c0.5-0.5,0.9-0.7,1.3-0.7 c0.8,0,1.1,0.4,0.9,1.3l-3.3,15.4c-0.2,0.9-0.7,1.3-1.5,1.3c-0.8,0-1.1-0.5-0.9-1.4l2.7-12.7L128.6,114.2z"></path> <path class="st1" d="M132.4,122.6C132.4,122.6,132.4,122.6,132.4,122.6c-0.5,0-0.8-0.1-1-0.4c-0.2-0.3-0.3-0.7-0.2-1.3l2.6-11.9 l-5.1,5.4c-0.4,0.3-0.7,0.4-1.1,0.4c0,0,0,0,0,0c-0.4,0-0.8-0.2-1-0.5l-2.8-5.4l-2.6,12.1c-0.3,1.3-1.1,1.6-1.7,1.6 c-0.4,0-0.8-0.1-1-0.4c-0.2-0.3-0.3-0.7-0.2-1.2l3.3-15.4c0.3-1.2,1-1.5,1.6-1.5c0,0,0,0,0,0c0.6,0,1,0.3,1.3,0.8l3.6,6.8l6.6-6.8 c0.5-0.5,1-0.7,1.5-0.7c0,0,0,0,0,0c0.4,0,0.7,0.1,0.9,0.4c0.2,0.3,0.3,0.7,0.2,1.2l-3.3,15.4C133.8,122.1,133.3,122.6,132.4,122.6 z M134.6,107.7l-2.9,13.4c-0.1,0.4-0.1,0.7,0.1,0.9c0.1,0.1,0.3,0.2,0.6,0.2c0.7,0,1.1-0.4,1.3-1.1l3.3-15.4 c0.1-0.4,0.1-0.7-0.1-0.9c-0.1-0.1-0.3-0.2-0.6-0.2c0,0,0,0,0,0c-0.4,0-0.8,0.2-1.2,0.6l-7,7.3l-3.9-7.3c-0.2-0.4-0.5-0.6-0.9-0.6 c-0.6,0-1,0.4-1.2,1.2l-3.3,15.4c-0.1,0.4-0.1,0.7,0.1,0.8c0.1,0.1,0.3,0.2,0.6,0.2c0.7,0,1.1-0.4,1.3-1.2l2.9-13.3l3.3,6.4 c0.1,0.2,0.4,0.3,0.7,0.3c0,0,0,0,0,0c0.3,0,0.6-0.1,0.8-0.3L134.6,107.7z"></path> <path class="st1" d="M153.5,115.9c-0.3,1.3-0.8,2.5-1.7,3.5c-0.8,1-1.8,1.8-3.1,2.3c-1.2,0.5-2.6,0.8-4.1,0.8 c-1.5,0-2.7-0.3-3.7-0.8c-1-0.5-1.7-1.3-2.1-2.3c-0.4-1-0.4-2.2-0.1-3.5l1-4.8c0.3-1.3,0.8-2.5,1.7-3.5c0.8-1,1.8-1.8,3.1-2.3 c1.2-0.5,2.6-0.8,4.1-0.8c1.5,0,2.7,0.3,3.7,0.8c1,0.5,1.7,1.3,2.1,2.3c0.4,1,0.4,2.2,0.1,3.5L153.5,115.9z M148.2,106.7 c-1.6,0-2.9,0.4-3.9,1.1c-1,0.8-1.7,1.9-2,3.3l-1,4.6c-0.3,1.5-0.1,2.6,0.5,3.3c0.7,0.8,1.8,1.1,3.4,1.2c1.6,0,2.9-0.4,3.9-1.1 c1-0.8,1.7-1.9,2-3.3l1-4.6c0.3-1.4,0.1-2.5-0.5-3.3C151,107.1,149.8,106.7,148.2,106.7"></path> <path class="st1" d="M144.8,122.7C144.8,122.7,144.8,122.7,144.8,122.7c-1.6,0-2.9-0.3-3.9-0.9c-1-0.6-1.8-1.4-2.2-2.4 c-0.4-1-0.4-2.3-0.1-3.6l1-4.8c0.3-1.4,0.9-2.6,1.7-3.6c0.8-1,1.9-1.8,3.1-2.4c1.2-0.5,2.6-0.8,4.1-0.8c1.5,0,2.8,0.3,3.8,0.9 c1,0.6,1.8,1.4,2.2,2.4c0.4,1,0.4,2.3,0.1,3.6l-1,4.8c-0.3,1.4-0.9,2.6-1.7,3.6c-0.8,1-1.9,1.8-3.1,2.4 C147.7,122.5,146.3,122.7,144.8,122.7z M148.6,104.6c-1.4,0-2.7,0.3-3.9,0.8c-1.2,0.5-2.2,1.3-3,2.3c-0.8,1-1.3,2.1-1.6,3.4l-1,4.8 c-0.3,1.3-0.2,2.4,0.1,3.4c0.4,1,1,1.7,2,2.2c1,0.5,2.2,0.8,3.6,0.8c1.4,0,2.8-0.3,4-0.8c1.2-0.5,2.2-1.3,3-2.3 c0.8-1,1.3-2.1,1.6-3.4l1-4.8c0.3-1.3,0.2-2.4-0.1-3.4c-0.4-1-1-1.7-2-2.2C151.3,104.9,150.1,104.6,148.6,104.6 C148.6,104.6,148.6,104.6,148.6,104.6z M145.3,120.5C145.3,120.5,145.3,120.5,145.3,120.5c-1.8,0-3-0.4-3.7-1.2 c-0.7-0.8-0.9-2-0.6-3.5l1-4.6c0.3-1.5,1-2.7,2.1-3.4c1-0.8,2.4-1.2,4.1-1.2l0,0c1.7,0,2.9,0.4,3.6,1.2c0.7,0.9,0.9,2.1,0.6,3.5 l-1,4.6c-0.3,1.5-1,2.7-2.1,3.4C148.3,120,146.9,120.4,145.3,120.5z M148.1,106.9c-1.5,0-2.8,0.4-3.7,1.1c-1,0.7-1.6,1.8-1.9,3.2 l-1,4.6c-0.3,1.4-0.1,2.4,0.5,3.1c0.6,0.7,1.7,1.1,3.3,1.1c1.6,0,2.8-0.4,3.8-1.1c1-0.7,1.6-1.8,1.9-3.2l1-4.6 c0.3-1.3,0.1-2.4-0.5-3.1C150.9,107.3,149.7,106.9,148.1,106.9L148.1,106.9C148.1,106.9,148.1,106.9,148.1,106.9z"></path> <path class="st1" d="M168.2,115.3l-1.3,6c-0.1,0.4-0.3,0.7-0.6,0.9c-0.3,0.2-0.6,0.4-1,0.4c-0.4,0-0.6-0.1-0.8-0.4 c-0.2-0.2-0.2-0.5-0.1-0.9l1.3-6l-0.2,0c-0.8,0-1.6,0.2-2.3,0.6c-0.7,0.4-1.2,1-1.7,1.8c-0.3,0.5-0.7,1.2-1.2,2.1 c-0.5,0.9-1.1,1.5-1.8,2c-0.7,0.5-1.5,0.7-2.4,0.7c-0.5,0-0.8-0.1-1-0.3c-0.2-0.2-0.3-0.5-0.2-0.8c0.2-0.8,0.7-1.1,1.7-1.1 c0.1,0,0.2-0.1,0.3-0.2c0.1-0.1,0.3-0.3,0.4-0.5c0.5-0.8,0.8-1.5,1-2c0.4-0.8,1-1.5,1.7-2.3c0.8-0.8,1.6-1.3,2.5-1.7 c-0.3-0.5-0.7-1.3-1.1-2.3c-0.4-1.1-0.8-2-1.1-2.7c-0.3-0.6-0.7-0.9-1.1-1c-0.5,0-0.8-0.1-1-0.3c-0.2-0.2-0.3-0.5-0.2-0.8 c0.2-0.7,0.7-1.1,1.6-1.1c0.7,0,1.4,0.2,2,0.7c0.6,0.5,1.1,1.2,1.6,2.1c0.3,0.7,0.6,1.4,1,2.3c0.3,0.8,0.6,1.5,0.9,1.9 c0.2,0.5,0.5,0.7,0.8,0.7l0.2,0l1.4-6.3c0.1-0.4,0.3-0.7,0.6-1c0.3-0.2,0.6-0.4,1-0.4c0.8,0,1.2,0.4,1,1.3l-1.4,6.3l0.2,0 c0.2,0,0.6-0.2,1.1-0.7c0.4-0.4,1-1,1.7-1.9c0.8-1,1.6-1.8,2.2-2.5c0.6-0.7,1.3-1.2,2-1.7c0.9-0.5,1.6-0.8,2.4-0.8 c0.5,0,0.8,0.1,1,0.3c0.2,0.2,0.3,0.5,0.2,0.8c-0.1,0.3-0.3,0.6-0.5,0.8c-0.3,0.2-0.7,0.3-1.2,0.3c-0.4,0-1,0.4-1.5,1 c-0.6,0.6-1.4,1.5-2.3,2.6c-0.8,1-1.5,1.8-2.1,2.3c0.5,0.3,1,0.6,1.4,1c0.4,0.4,0.7,0.9,0.8,1.4c0.3,1,0.5,2,0.5,3 c0,0.4,0,0.7,0.1,1c0.1,0.2,0.2,0.3,0.4,0.3c0.4,0,0.8,0.1,1,0.3c0.2,0.2,0.3,0.5,0.2,0.8c-0.2,0.8-0.8,1.1-1.8,1.1 c-0.9,0-1.5-0.2-2.1-0.7c-0.5-0.5-0.8-1.1-0.9-2c0-0.3-0.1-0.6-0.1-0.7c-0.1-0.8-0.2-1.5-0.3-1.9c-0.1-0.5-0.3-0.9-0.7-1.2 c-0.5-0.5-1.2-0.7-2.1-0.7L168.2,115.3z"></path> <path class="st1" d="M174.5,122.8C174.5,122.8,174.5,122.8,174.5,122.8c-0.9,0-1.7-0.3-2.2-0.8c-0.6-0.5-0.9-1.2-1-2.1 c0-0.3-0.1-0.6-0.1-0.8c-0.1-0.8-0.2-1.4-0.3-1.9c-0.1-0.4-0.3-0.8-0.6-1.2c-0.4-0.4-1.1-0.6-1.9-0.6l0,0l-1.3,5.8 c-0.1,0.4-0.3,0.8-0.6,1c-0.3,0.3-0.7,0.4-1.1,0.4c0,0,0,0,0,0c-0.4,0-0.8-0.2-1-0.4c-0.2-0.3-0.3-0.6-0.2-1.1l1.2-5.8 c-0.8,0-1.5,0.2-2.1,0.6c-0.6,0.4-1.2,1-1.6,1.7c-0.3,0.5-0.7,1.2-1.2,2.1c-0.5,0.9-1.1,1.6-1.9,2.1c-0.7,0.5-1.6,0.7-2.4,0.7 c0,0,0,0,0,0c-0.5,0-0.9-0.1-1.2-0.4c-0.2-0.2-0.4-0.5-0.3-1c0.1-0.6,0.6-1.3,1.9-1.3c0,0,0,0,0,0c0,0,0.1,0,0.2-0.1 c0.1-0.1,0.2-0.3,0.3-0.5c0.5-0.8,0.8-1.5,1-2c0.4-0.8,1-1.6,1.8-2.4c0.7-0.7,1.5-1.3,2.3-1.6c-0.3-0.5-0.6-1.2-1-2.2 c-0.4-1.1-0.8-2-1.1-2.7c-0.3-0.5-0.6-0.8-0.9-0.8c-0.5,0-0.9-0.2-1.1-0.4c-0.2-0.2-0.4-0.5-0.3-1c0.1-0.6,0.5-1.3,1.8-1.3 c0,0,0,0,0,0c0.8,0,1.5,0.3,2.2,0.8c0.6,0.5,1.2,1.2,1.6,2.2c0.3,0.7,0.6,1.4,1,2.3c0.3,0.8,0.6,1.5,0.9,1.9 c0.2,0.4,0.4,0.6,0.6,0.6l1.3-6.1c0.1-0.5,0.3-0.8,0.6-1.1c0.3-0.3,0.7-0.4,1.1-0.4c0.5,0,0.8,0.1,1,0.4c0.2,0.3,0.3,0.7,0.2,1.2 l-1.3,6c0.1,0,0.4-0.2,0.9-0.6c0.4-0.4,1-1,1.7-1.9c0.8-1,1.6-1.9,2.2-2.5c0.6-0.7,1.3-1.2,2.1-1.7c0.9-0.6,1.7-0.9,2.5-0.8 c0.5,0,0.9,0.1,1.2,0.4c0.3,0.3,0.4,0.6,0.3,1c-0.1,0.4-0.3,0.7-0.6,0.9c-0.3,0.2-0.7,0.3-1.3,0.4c-0.4,0-0.8,0.3-1.4,0.9 c-0.6,0.6-1.4,1.5-2.3,2.6c-0.7,0.9-1.4,1.6-1.9,2.1c0.4,0.2,0.8,0.6,1.2,1c0.4,0.5,0.7,1,0.8,1.5c0.3,1,0.5,2,0.5,3 c0,0.4,0,0.7,0.1,0.9c0,0.1,0.1,0.2,0.2,0.2c0.5,0,0.9,0.1,1.1,0.4c0.3,0.3,0.4,0.6,0.3,1C176.3,122.1,175.9,122.8,174.5,122.8z M168,115.1l0.4,0c1,0,1.7,0.3,2.2,0.7c0.4,0.4,0.6,0.8,0.7,1.3c0.1,0.5,0.2,1.1,0.3,1.9c0,0.2,0,0.4,0.1,0.7 c0.1,0.8,0.3,1.4,0.8,1.9c0.5,0.4,1.1,0.7,1.9,0.7c0.9,0,1.4-0.3,1.6-1c0.1-0.3,0-0.5-0.2-0.6c-0.2-0.2-0.5-0.3-0.9-0.3 c-0.2,0-0.4-0.1-0.6-0.5c-0.1-0.2-0.1-0.6-0.1-1c0-0.9-0.2-1.9-0.5-2.9c-0.1-0.5-0.4-0.9-0.7-1.3c-0.4-0.4-0.8-0.7-1.3-1l-0.3-0.1 l0.2-0.2c0.6-0.5,1.3-1.3,2.1-2.3c0.9-1.2,1.7-2.1,2.3-2.7c0.6-0.7,1.1-1,1.7-1c0.4,0,0.8-0.1,1-0.3c0.2-0.2,0.4-0.4,0.5-0.7 c0.1-0.3,0-0.5-0.2-0.6c-0.2-0.2-0.5-0.3-0.9-0.3c0,0,0,0,0,0c-0.7,0-1.4,0.3-2.2,0.8c-0.7,0.5-1.4,1-2,1.7 c-0.6,0.6-1.3,1.5-2.2,2.5c-0.8,0.9-1.3,1.5-1.7,1.9c-0.6,0.5-1,0.8-1.2,0.8c0,0,0,0,0,0l-0.4,0l1.4-6.6c0.1-0.4,0.1-0.7-0.1-0.9 c-0.1-0.2-0.3-0.2-0.7-0.2c-0.3,0-0.6,0.1-0.8,0.3c-0.2,0.2-0.4,0.5-0.5,0.9l-1.4,6.5l-0.3,0c-0.4,0-0.7-0.3-0.9-0.9 c-0.3-0.4-0.6-1.1-0.9-1.9c-0.3-0.8-0.7-1.6-1-2.3c-0.4-0.9-0.9-1.5-1.5-2c-0.6-0.4-1.2-0.7-1.9-0.7c0,0,0,0,0,0 c-0.8,0-1.2,0.3-1.4,0.9c-0.1,0.3,0,0.5,0.1,0.6c0.2,0.2,0.5,0.3,0.9,0.3c0.5,0,0.9,0.4,1.3,1.1c0.3,0.6,0.7,1.5,1.1,2.7 c0.4,1.1,0.7,1.8,1.1,2.3l0.1,0.2l-0.2,0.1c-0.9,0.3-1.7,0.9-2.4,1.6c-0.7,0.7-1.3,1.5-1.7,2.2c-0.2,0.5-0.6,1.1-1.1,2 c-0.1,0.2-0.3,0.4-0.4,0.6c-0.2,0.2-0.4,0.2-0.5,0.2c-0.9,0-1.3,0.3-1.5,1c-0.1,0.3,0,0.5,0.2,0.6c0.2,0.2,0.5,0.3,0.9,0.3 c0,0,0,0,0,0c0.8,0,1.5-0.2,2.2-0.7c0.7-0.4,1.3-1.1,1.7-1.9c0.5-0.9,0.9-1.6,1.2-2.1c0.5-0.8,1-1.5,1.7-1.9 c0.7-0.4,1.5-0.6,2.4-0.7l0.5,0l-1.4,6.3c-0.1,0.3,0,0.5,0.1,0.7c0.1,0.2,0.3,0.3,0.6,0.3c0,0,0,0,0,0c0.3,0,0.6-0.1,0.9-0.3 c0.3-0.2,0.4-0.5,0.5-0.8L168,115.1z"></path> <path class="st1" d="M181.9,121.3c-0.2,0.9-0.7,1.3-1.5,1.3c-0.8,0-1.1-0.4-0.9-1.3l3.3-15.4c0.2-0.9,0.7-1.3,1.4-1.3 c0.8,0,1.2,0.4,1,1.3l-1.3,5.8l9.9,0l1.3-5.9c0.2-0.9,0.7-1.3,1.5-1.3c0.8,0,1.1,0.4,0.9,1.3l-3.3,15.4c-0.2,0.9-0.7,1.3-1.5,1.3 c-0.8,0-1.1-0.4-0.9-1.3l1.6-7.2l-9.9,0L181.9,121.3z"></path> <path class="st1" d="M192.7,122.8C192.7,122.8,192.7,122.8,192.7,122.8c-0.5,0-0.8-0.1-1-0.4c-0.2-0.3-0.3-0.7-0.2-1.2l1.5-7 l-9.5,0l-1.5,7.1c-0.2,1-0.8,1.5-1.7,1.5c0,0,0,0,0,0c-0.4,0-0.8-0.1-1-0.4c-0.2-0.3-0.3-0.7-0.2-1.2l3.3-15.4 c0.3-1.2,1-1.5,1.6-1.5c0.5,0,0.8,0.1,1,0.4c0.2,0.3,0.3,0.7,0.2,1.2l-1.2,5.6l9.5,0l1.2-5.7c0.3-1.2,1.1-1.5,1.7-1.5c0,0,0,0,0,0 c0.4,0,0.8,0.1,1,0.4c0.2,0.3,0.3,0.7,0.2,1.2l-3.3,15.4C194.1,122.3,193.6,122.8,192.7,122.8z M183.2,113.8l10.3,0l-1.6,7.5 c-0.1,0.4-0.1,0.7,0.1,0.8c0.1,0.1,0.3,0.2,0.6,0.2c0,0,0,0,0,0c0.7,0,1.1-0.4,1.3-1.1l3.3-15.4c0.1-0.4,0.1-0.7-0.1-0.9 c-0.1-0.1-0.3-0.2-0.6-0.2c-0.7,0-1.1,0.4-1.3,1.2l-1.3,6l-10.3,0l1.3-6.1c0.1-0.4,0.1-0.7-0.1-0.9c-0.1-0.2-0.4-0.2-0.7-0.2 c0,0,0,0,0,0c-0.6,0-1,0.4-1.2,1.2l-3.3,15.4c-0.1,0.4-0.1,0.7,0.1,0.8c0.1,0.1,0.3,0.2,0.6,0.2c0,0,0,0,0,0c0.7,0,1.1-0.4,1.3-1.1 L183.2,113.8z"></path> <path class="st1" d="M213.8,116.1c-0.3,1.3-0.8,2.5-1.7,3.5c-0.8,1-1.8,1.8-3.1,2.3c-1.2,0.5-2.6,0.8-4.1,0.8 c-1.5,0-2.7-0.3-3.7-0.8c-1-0.5-1.7-1.3-2.1-2.3c-0.4-1-0.4-2.2-0.1-3.5l1-4.8c0.3-1.3,0.8-2.5,1.7-3.5c0.8-1,1.8-1.8,3.1-2.3 c1.2-0.5,2.6-0.8,4.1-0.8c1.5,0,2.7,0.3,3.7,0.8c1,0.5,1.7,1.3,2.1,2.3c0.4,1,0.4,2.2,0.1,3.5L213.8,116.1z M208.5,106.9 c-1.6,0-2.9,0.4-3.9,1.1c-1,0.8-1.7,1.9-2,3.3l-1,4.6c-0.3,1.5-0.1,2.6,0.5,3.3c0.7,0.8,1.8,1.1,3.4,1.2c1.6,0,2.9-0.4,3.9-1.1 c1-0.8,1.7-1.9,2-3.3l1-4.6c0.3-1.4,0.1-2.5-0.5-3.3C211.3,107.3,210.1,106.9,208.5,106.9"></path> <path class="st1" d="M205.2,122.9c0,0-0.1,0-0.1,0c-1.5,0-2.8-0.3-3.8-0.9c-1-0.6-1.8-1.4-2.2-2.4c-0.4-1-0.4-2.3-0.1-3.6l1-4.8 c0.3-1.4,0.9-2.6,1.7-3.6c0.8-1,1.9-1.8,3.1-2.4c1.2-0.6,2.6-0.8,4.1-0.8c1.5,0,2.8,0.3,3.8,0.9c1,0.6,1.8,1.4,2.2,2.4 c0.4,1,0.4,2.3,0.1,3.6l-1,4.8c-0.3,1.4-0.9,2.6-1.7,3.6c-0.8,1-1.9,1.8-3.1,2.4C208,122.6,206.6,122.9,205.2,122.9z M208.9,104.8 c-1.4,0-2.7,0.3-3.9,0.8c-1.2,0.5-2.2,1.3-3,2.3c-0.8,1-1.3,2.1-1.6,3.4l-1,4.8c-0.3,1.3-0.2,2.4,0.1,3.4c0.4,1,1,1.7,2,2.2 c1,0.5,2.2,0.8,3.6,0.8c1.4,0,2.8-0.3,4-0.8c1.2-0.5,2.2-1.3,3-2.3c0.8-1,1.3-2.1,1.6-3.4l1-4.8c0.3-1.3,0.2-2.4-0.1-3.4 c-0.4-1-1-1.7-2-2.2C211.6,105.1,210.4,104.8,208.9,104.8C208.9,104.8,208.9,104.8,208.9,104.8z M205.6,120.6 C205.6,120.6,205.6,120.6,205.6,120.6c-1.7,0-3-0.4-3.7-1.2c-0.7-0.8-0.9-2-0.6-3.5l1-4.6c0.3-1.5,1-2.7,2.1-3.4 c1-0.8,2.4-1.2,4-1.2c0,0,0.1,0,0.1,0c1.7,0,2.9,0.4,3.6,1.2c0.7,0.9,0.9,2.1,0.6,3.5l-1,4.6c-0.3,1.5-1,2.7-2.1,3.4 C208.6,120.2,207.2,120.6,205.6,120.6z M208.4,107.1c-1.5,0-2.8,0.4-3.7,1.1c-1,0.7-1.6,1.8-1.9,3.2l-1,4.6 c-0.3,1.4-0.1,2.4,0.5,3.1c0.6,0.7,1.7,1.1,3.3,1.1c1.5,0,2.8-0.4,3.8-1.1c1-0.7,1.6-1.8,1.9-3.2l1-4.6c0.3-1.3,0.1-2.4-0.5-3.1 C211.2,107.5,210,107.1,208.4,107.1L208.4,107.1C208.4,107.1,208.4,107.1,208.4,107.1z"></path> <path class="st1" d="M223.3,122.5c-1.9,0-3.3-0.2-4.3-0.5c-1-0.3-1.6-0.9-1.9-1.6c-0.3-0.7-0.3-1.8,0-3.1l1.6-7.3 c0.3-1.3,0.7-2.3,1.3-3c0.6-0.7,1.4-1.3,2.5-1.6c1.1-0.3,2.4-0.5,4.1-0.5l4.5,0c1.1,0,1.9,0.3,2.3,0.8c0.4,0.5,0.5,1.4,0.3,2.5 c-0.2,1-0.7,1.5-1.5,1.5c-0.4,0-0.6-0.1-0.8-0.4c-0.2-0.3-0.2-0.6-0.1-1.1c0.1-0.5,0.1-0.8,0-0.9c-0.1-0.2-0.4-0.2-0.8-0.2l-4.3,0 c-1.3,0-2.3,0.1-2.9,0.2c-0.6,0.1-1.1,0.4-1.4,0.8c-0.3,0.4-0.6,1-0.8,1.9l-1.6,7.2c-0.2,0.9-0.2,1.5-0.1,1.9 c0.2,0.4,0.6,0.7,1.2,0.8c0.7,0.1,1.7,0.2,3.2,0.2l3.8,0c0.4,0,0.7-0.1,0.9-0.2c0.2-0.2,0.3-0.5,0.4-0.9c0.1-0.5,0.3-0.8,0.5-1.1 c0.3-0.3,0.6-0.4,1-0.4c0.8,0,1.1,0.5,0.9,1.6c-0.2,1.1-0.7,2-1.4,2.5c-0.7,0.5-1.5,0.8-2.7,0.8L223.3,122.5z"></path> <path class="st1" d="M227.4,122.8C227.4,122.8,227.3,122.8,227.4,122.8l-4.1,0c-1.9,0-3.3-0.2-4.3-0.5c-1-0.3-1.7-0.9-2.1-1.7 c-0.3-0.8-0.3-1.9-0.1-3.2l1.6-7.3c0.3-1.3,0.7-2.4,1.4-3.1c0.6-0.8,1.5-1.3,2.6-1.7c1.1-0.3,2.5-0.5,4.2-0.5l4.5,0 c1.2,0,2,0.3,2.5,0.9c0.5,0.6,0.6,1.5,0.3,2.7c-0.3,1.4-1.1,1.7-1.7,1.7c0,0,0,0,0,0c-0.5,0-0.8-0.2-1-0.5 c-0.2-0.3-0.2-0.7-0.1-1.2c0.1-0.5,0-0.7,0-0.7c0,0-0.2-0.1-0.7-0.2l-4.3,0c-1.3,0-2.3,0.1-2.9,0.2c-0.6,0.1-1,0.4-1.3,0.7 c-0.3,0.4-0.5,1-0.7,1.8l-1.6,7.2c-0.2,0.8-0.2,1.4-0.1,1.8c0.1,0.3,0.5,0.6,1.1,0.7c0.6,0.1,1.7,0.2,3.1,0.2l3.8,0 c0.4,0,0.7-0.1,0.8-0.2c0.1-0.1,0.2-0.3,0.4-0.8c0.1-0.5,0.3-0.9,0.6-1.2c0.3-0.3,0.7-0.4,1.1-0.4c0.4,0,0.7,0.1,0.9,0.4 c0.2,0.3,0.3,0.8,0.2,1.4c-0.3,1.2-0.7,2-1.4,2.6C229.4,122.5,228.5,122.8,227.4,122.8z M223.3,122.3l4,0c1.1,0,1.9-0.3,2.5-0.8 c0.6-0.5,1-1.3,1.3-2.4c0.1-0.5,0.1-0.9-0.1-1.1c-0.1-0.1-0.3-0.2-0.6-0.2c0,0,0,0,0,0c-0.3,0-0.6,0.1-0.8,0.3 c-0.2,0.2-0.4,0.5-0.5,1c-0.1,0.5-0.3,0.8-0.5,1c-0.2,0.2-0.6,0.3-1.1,0.3l-3.8,0c-1.5,0-2.6-0.1-3.2-0.2c-0.7-0.2-1.2-0.5-1.4-1 c-0.2-0.4-0.2-1.1,0-2l1.6-7.2c0.2-0.9,0.5-1.5,0.8-2c0.3-0.4,0.9-0.7,1.6-0.9c0.7-0.1,1.6-0.2,3-0.2l4.3,0c0.5,0,0.8,0.1,1,0.3 c0.2,0.2,0.2,0.6,0.1,1.1c-0.1,0.4-0.1,0.7,0.1,0.9c0.1,0.2,0.3,0.3,0.6,0.3c0,0,0,0,0,0c0.7,0,1.1-0.4,1.3-1.4 c0.2-1.1,0.2-1.9-0.2-2.4c-0.4-0.5-1.1-0.7-2.1-0.7l-4.5,0c-1.7,0-3,0.2-4.1,0.5c-1,0.3-1.8,0.8-2.4,1.5c-0.6,0.7-1,1.7-1.3,3 l-1.6,7.3c-0.3,1.3-0.3,2.3,0,3c0.3,0.7,0.9,1.2,1.8,1.5C220.1,122.2,221.5,122.3,223.3,122.3L223.3,122.3z"></path> <path class="st1" d="M248.7,105c0.9,0,1.3,0.4,1.1,1.1c-0.2,0.8-0.7,1.1-1.6,1.1l-4,0l-3.1,14.3c-0.1,0.4-0.3,0.7-0.6,0.9 c-0.3,0.2-0.7,0.4-1.1,0.4c-0.4,0-0.7-0.1-0.9-0.3c-0.2-0.2-0.2-0.5-0.1-0.9l3.1-14.3l-4.1,0c-0.4,0-0.8-0.1-1-0.3 c-0.2-0.2-0.3-0.5-0.2-0.8c0.1-0.3,0.3-0.6,0.5-0.8c0.3-0.2,0.7-0.3,1.1-0.3L248.7,105z"></path> <path class="st1" d="M239.4,123C239.4,123,239.4,123,239.4,123c-0.5,0-0.8-0.1-1.1-0.4c-0.2-0.3-0.3-0.6-0.2-1.1l3-14l-3.8,0 c-0.5,0-0.9-0.1-1.1-0.4c-0.2-0.2-0.4-0.5-0.2-1c0.1-0.4,0.3-0.7,0.6-1c0.3-0.2,0.7-0.3,1.2-0.4l10.8,0c0.6,0,1,0.1,1.2,0.4 c0.2,0.2,0.2,0.6,0.2,1c-0.1,0.6-0.5,1.3-1.8,1.3c0,0,0,0,0,0l-3.9,0l-3,14.1c-0.1,0.4-0.3,0.8-0.7,1 C240.3,122.9,239.8,123,239.4,123z M237.8,105.2c-0.4,0-0.7,0.1-0.9,0.3c-0.2,0.2-0.4,0.4-0.5,0.7c-0.1,0.3,0,0.5,0.1,0.6 c0.2,0.2,0.4,0.3,0.8,0.3l4.4,0l-3.1,14.5c-0.1,0.3,0,0.6,0.1,0.7c0.1,0.2,0.4,0.3,0.7,0.3c0,0,0,0,0,0c0.4,0,0.7-0.1,0.9-0.3 c0.3-0.2,0.4-0.5,0.5-0.8L244,107l4.2,0c0.8,0,1.3-0.3,1.4-1c0.1-0.3,0-0.5-0.1-0.6c-0.1-0.2-0.4-0.3-0.9-0.3L237.8,105.2 C237.8,105.2,237.8,105.2,237.8,105.2z"></path> <path class="st1" d="M253.3,113.9l-1.4,6.5l10.9,0c0.5,0,0.8,0.1,1,0.3c0.2,0.2,0.3,0.5,0.2,0.9c-0.1,0.3-0.3,0.6-0.5,0.8 c-0.3,0.2-0.7,0.3-1.1,0.3l-12.1,0c-0.4,0-0.6-0.1-0.8-0.4c-0.1-0.2-0.2-0.6-0.1-1l3.2-14.9c0.1-0.4,0.3-0.8,0.5-1 c0.3-0.2,0.6-0.4,0.9-0.4l12.1,0c0.5,0,0.8,0.1,1,0.3c0.2,0.2,0.3,0.5,0.2,0.9c-0.1,0.3-0.3,0.6-0.5,0.8c-0.3,0.2-0.7,0.3-1.1,0.3 l-10.9,0l-0.9,4.3l7.4,0c0.5,0,0.9,0.1,1.1,0.3c0.2,0.2,0.3,0.5,0.2,0.9c-0.2,0.7-0.8,1.1-1.8,1.1L253.3,113.9z"></path> <path class="st1" d="M262.3,122.9C262.3,122.9,262.3,122.9,262.3,122.9l-12.1,0c-0.4,0-0.8-0.2-0.9-0.5c-0.2-0.3-0.2-0.7-0.1-1.2 l3.2-14.9c0.1-0.5,0.3-0.9,0.6-1.1c0.3-0.3,0.6-0.4,1-0.4c0,0,0,0,0,0l12.1,0c0.5,0,0.9,0.1,1.1,0.4c0.3,0.3,0.3,0.6,0.2,1.1 c-0.1,0.4-0.3,0.7-0.6,0.9c-0.3,0.2-0.7,0.3-1.2,0.3l-10.7,0l-0.8,3.9l7.1,0c0.6,0,1,0.1,1.3,0.4c0.3,0.3,0.4,0.6,0.3,1.1 c-0.2,0.8-0.9,1.2-2,1.3l-7.2,0l-1.3,6l10.6,0c0.5,0,0.9,0.1,1.1,0.4c0.3,0.3,0.3,0.6,0.2,1.1c-0.1,0.4-0.3,0.7-0.6,0.9 C263.2,122.8,262.8,122.9,262.3,122.9z M254,105.2c-0.3,0-0.5,0.1-0.8,0.3c-0.2,0.2-0.4,0.5-0.5,0.9l-3.2,14.9 c-0.1,0.4-0.1,0.7,0.1,0.8c0.1,0.2,0.3,0.3,0.6,0.3l12.1,0c0.4,0,0.7-0.1,1-0.2c0.2-0.2,0.4-0.4,0.5-0.7c0.1-0.3,0-0.6-0.1-0.7 c-0.2-0.2-0.4-0.2-0.8-0.2l-11.1,0l1.5-6.9l7.5,0c0,0,0,0,0,0c0.9,0,1.4-0.3,1.6-0.9c0.1-0.3,0-0.5-0.2-0.7c-0.2-0.2-0.5-0.2-1-0.3 l-7.6,0l1-4.7l11,0c0.4,0,0.7-0.1,1-0.2c0.2-0.2,0.4-0.4,0.5-0.7c0.1-0.3,0-0.6-0.1-0.7c-0.2-0.2-0.4-0.2-0.8-0.2L254,105.2 C254,105.2,254,105.2,254,105.2z"></path> <path class="st1" d="M267.4,121.6l3.3-15.4c0.2-0.9,0.7-1.3,1.5-1.3c0.8,0,1.1,0.5,0.9,1.4l-2.7,12.5l12.8-13.2 c0.5-0.5,0.9-0.7,1.4-0.7c0.8,0,1,0.4,0.8,1.3l-3.3,15.4c-0.2,0.9-0.7,1.3-1.5,1.3c-0.8,0-1.1-0.4-0.9-1.2l2.7-12.7l-12.7,13.1 c-0.3,0.3-0.5,0.5-0.7,0.6c-0.2,0.1-0.4,0.1-0.7,0.1C267.5,122.9,267.2,122.4,267.4,121.6 M276.4,105.5c-1.1,0-1.8-0.3-2.2-0.8 c-0.3-0.5-0.4-1.5-0.1-2.8l0.3-1.2l2.4,0l-0.3,1.6c-0.1,0.4-0.1,0.6,0,0.7c0.1,0.1,0.3,0.1,0.7,0.2l2.9,0c0.4,0,0.6,0,0.7-0.1 c0.1-0.1,0.2-0.3,0.3-0.7l0.3-1.6l2.4,0l-0.3,1.2c-0.3,1.3-0.7,2.3-1.3,2.8c-0.6,0.5-1.4,0.8-2.5,0.8L276.4,105.5z"></path> <path class="st1" d="M280.6,123.1C280.6,123.1,280.6,123.1,280.6,123.1c-0.5,0-0.8-0.1-1-0.4c-0.2-0.3-0.3-0.6-0.2-1.1l2.6-11.9 l-12.1,12.6c-0.3,0.3-0.6,0.5-0.8,0.7c-0.2,0.1-0.5,0.2-0.8,0.2c0,0,0,0,0,0c-0.4,0-0.7-0.1-0.9-0.4c-0.2-0.3-0.3-0.7-0.2-1.2 l3.3-15.4c0.3-1.2,1.1-1.5,1.7-1.5c0,0,0,0,0,0c0.4,0,0.7,0.1,0.9,0.4c0.2,0.3,0.3,0.7,0.2,1.3l-2.5,11.8l12.3-12.7 c0.5-0.5,1-0.7,1.5-0.7c0,0,0,0,0,0c0.4,0,0.7,0.1,0.9,0.4c0.2,0.3,0.3,0.7,0.2,1.2l-3.3,15.4C282.1,122.6,281.5,123.1,280.6,123.1 z M282.8,108.3l-2.9,13.4c-0.1,0.4-0.1,0.6,0.1,0.8c0.1,0.1,0.3,0.2,0.7,0.2c0,0,0,0,0,0c0.7,0,1.1-0.4,1.3-1.1l3.3-15.4 c0.1-0.4,0.1-0.7-0.1-0.9c-0.1-0.1-0.3-0.2-0.6-0.2c0,0,0,0,0,0c-0.4,0-0.8,0.2-1.2,0.6L270,119.5l2.9-13.2 c0.1-0.4,0.1-0.8-0.1-0.9c-0.1-0.1-0.3-0.2-0.6-0.2c-0.7,0-1.1,0.4-1.3,1.2l-3.3,15.4c-0.1,0.4-0.1,0.7,0.1,0.8 c0.1,0.1,0.3,0.2,0.6,0.2c0.3,0,0.5,0,0.6-0.1c0.1-0.1,0.3-0.2,0.7-0.6L282.8,108.3z M279.8,105.8 C279.8,105.8,279.8,105.8,279.8,105.8l-3.4,0c-1.2,0-2-0.3-2.4-0.9c-0.4-0.6-0.4-1.6-0.1-3l0.3-1.3l2.8,0l-0.4,1.9 c-0.1,0.5-0.1,0.6-0.1,0.6l0,0c0,0,0.1,0.1,0.5,0.1l2.9,0c0,0,0,0,0,0c0.4,0,0.6-0.1,0.6-0.1c0,0,0.1-0.1,0.2-0.6l0.4-1.8l2.8,0 l-0.3,1.4c-0.3,1.4-0.8,2.4-1.4,2.9C281.8,105.5,281,105.7,279.8,105.8z M274.6,100.9l-0.2,1c-0.3,1.3-0.3,2.2,0,2.6 c0.3,0.5,1,0.7,2,0.7l3.3,0c1,0,1.9-0.2,2.4-0.7c0.5-0.5,1-1.4,1.2-2.7l0.2-0.9l-2,0l-0.3,1.4c-0.1,0.5-0.2,0.7-0.4,0.9 c-0.2,0.1-0.4,0.2-0.9,0.2l-2.9,0c-0.5,0-0.8-0.1-0.9-0.2c-0.1-0.2-0.1-0.4,0-0.9l0.3-1.3L274.6,100.9z"></path> </g> </svg> 